<?xml version="1.0" encoding="UTF-8"?>
<svg xmlns="http://www.w3.org/2000/svg" xmlns:xlink="http://www.w3.org/1999/xlink" width="50px" height="50px" viewBox="0 0 496 496" version="1.1">
<g id="surface1">
<path style=" stroke:none;fill-rule:nonzero;fill:rgb(0%,0%,0%);fill-opacity:1;" d="M 246.234375 496.5 C 238.066406 482.421875 231.03125 467.878906 223.6875 453.492188 C 193.320312 393.996094 162.960938 334.492188 132.613281 274.984375 C 110.328125 231.28125 88.101562 187.546875 65.769531 143.867188 C 59.742188 132.078125 53.886719 120.195312 47.382812 108.648438 C 45.609375 105.503906 46.328125 102.5 49.261719 100.332031 C 52.058594 98.265625 55.472656 98.53125 57.730469 101.335938 C 59.285156 103.261719 60.558594 105.460938 61.695312 107.671875 C 67.980469 119.886719 74.183594 132.144531 80.417969 144.382812 C 100.945312 184.683594 121.472656 224.984375 142.003906 265.28125 C 142.488281 266.226562 143.027344 267.144531 143.875 268.683594 C 141.058594 236.527344 149.191406 208.261719 169.871094 184.203125 C 190.527344 160.179688 216.992188 147.410156 248.699219 146.027344 C 269.101562 145.136719 288.203125 150.140625 305.917969 160.199219 C 323.570312 170.21875 337.363281 184.210938 347.285156 201.902344 C 357.226562 219.628906 361.832031 238.765625 361.472656 259.195312 C 362.640625 258.804688 362.730469 257.871094 363.082031 257.1875 C 379.960938 224.1875 396.820312 191.175781 413.6875 158.167969 C 422.703125 140.515625 431.734375 122.871094 440.746094 105.214844 C 441.652344 103.433594 442.390625 101.566406 443.347656 99.816406 C 445.222656 96.375 448.597656 95.097656 451.730469 96.535156 C 455.039062 98.054688 456.433594 101.5 454.980469 105.113281 C 451.777344 113.089844 447.410156 120.492188 443.511719 128.125 C 419.527344 175.074219 395.53125 222.015625 371.539062 268.960938 C 348.046875 314.945312 324.558594 360.933594 301.058594 406.914062 C 287.414062 433.617188 273.746094 460.304688 260.089844 487 C 258.542969 490.027344 256.488281 492.804688 255.515625 496.316406 C 252.488281 496.5 249.480469 496.5 246.234375 496.5 M 214.753906 166.515625 C 194.136719 175.617188 178.222656 189.96875 167.730469 209.894531 C 155.386719 233.335938 152.664062 258.117188 160.214844 283.527344 C 169.1875 313.734375 188.617188 334.890625 217.902344 346.695312 C 235.453125 353.769531 253.652344 354.882812 272.09375 351.144531 C 286.257812 348.277344 299.097656 342.28125 310.566406 333.425781 C 327.039062 320.707031 338.300781 304.351562 344.394531 284.503906 C 348.398438 271.476562 349.386719 258.132812 347.878906 244.574219 C 346.476562 231.917969 342.839844 219.9375 336.574219 208.898438 C 321.558594 182.449219 299.132812 166.125 269.152344 160.375 C 260.421875 158.699219 251.601562 158.515625 242.816406 159.324219 C 233.25 160.203125 224.003906 162.691406 214.753906 166.515625 M 291.355469 397.636719 C 300.539062 379.636719 309.722656 361.632812 319.144531 343.171875 C 297.84375 359.230469 274.390625 367.078125 248.203125 366.035156 C 222.015625 364.988281 199.167969 355.402344 179.332031 338.332031 C 202.886719 384.582031 226.441406 430.828125 250.3125 477.699219 C 264.171875 450.667969 277.679688 424.320312 291.355469 397.636719 Z M 291.355469 397.636719 "/>
<path style=" stroke:none;fill-rule:nonzero;fill:rgb(0%,0%,0%);fill-opacity:1;" d="M 274.636719 45.5 C 274.59375 59.910156 274.578125 74.070312 274.496094 88.234375 C 274.460938 93.894531 274.292969 99.554688 274.15625 105.214844 C 274.0625 109.011719 271.3125 111.890625 267.800781 111.945312 C 264.441406 112 261.375 108.945312 261.402344 105.253906 C 261.554688 83.683594 261.136719 62.109375 261.765625 40.539062 C 261.886719 36.378906 261.808594 32.210938 261.855469 28.046875 C 261.902344 23.882812 264.605469 20.875 268.25 20.867188 C 271.917969 20.855469 274.644531 23.871094 274.652344 28.007812 C 274.667969 33.753906 274.644531 39.503906 274.636719 45.5 Z M 274.636719 45.5 "/>
<path style=" stroke:none;fill-rule:nonzero;fill:rgb(0%,0%,0%);fill-opacity:1;" d="M 223.609375 27.363281 C 224.558594 23.292969 227.308594 21.019531 230.605469 21.398438 C 234.125 21.804688 236.511719 24.621094 236.417969 28.628906 C 235.839844 53.925781 236.371094 79.226562 235.976562 104.519531 C 235.960938 105.511719 235.867188 106.523438 235.632812 107.484375 C 234.9375 110.351562 231.957031 112.636719 229.234375 112.484375 C 226.136719 112.308594 223.441406 109.6875 223.257812 106.46875 C 223.140625 104.394531 223.296875 102.3125 223.304688 100.230469 C 223.359375 77.09375 223.410156 53.957031 223.46875 30.820312 C 223.46875 29.738281 223.53125 28.65625 223.609375 27.363281 Z M 223.609375 27.363281 "/>
<path style=" stroke:none;fill-rule:nonzero;fill:rgb(0%,0%,0%);fill-opacity:1;" d="M 272.203125 282.21875 C 255.167969 295.648438 229.464844 289.292969 221.296875 269.519531 C 212.984375 249.398438 225.523438 228.136719 246.011719 224.75 C 267.542969 221.191406 286.277344 238.054688 284.523438 259.730469 C 283.789062 268.84375 279.570312 276.371094 272.203125 282.21875 Z M 272.203125 282.21875 "/>
</g>
</svg>
