<?xml version="1.0" encoding="UTF-8"?>
<svg xmlns="http://www.w3.org/2000/svg" xmlns:xlink="http://www.w3.org/1999/xlink" width="50px" height="50px" viewBox="0 0 496 496" version="1.1">
<g id="surface1">
<path style=" stroke:none;fill-rule:nonzero;fill:rgb(0%,0%,0%);fill-opacity:1;" d="M 333.734375 496.5 C 332.960938 494.46875 332.894531 492.402344 332.882812 490.308594 C 332.699219 448.566406 332.648438 406.824219 332.242188 365.082031 C 331.902344 329.921875 332.070312 294.761719 331.792969 259.601562 C 331.707031 248.9375 331.519531 238.273438 331.546875 227.613281 C 331.554688 225.09375 330.632812 224.5625 328.328125 224.601562 C 307.003906 224.976562 285.679688 225.253906 264.355469 225.5625 C 248.351562 225.796875 232.363281 225.125 216.421875 223.996094 C 197.84375 222.683594 179.292969 220.847656 161.089844 216.578125 C 143.097656 212.359375 125.585938 206.859375 109.789062 196.933594 C 92.546875 186.09375 80.1875 171.4375 75.21875 151.339844 C 72.867188 141.835938 72.46875 132.140625 73.570312 122.367188 C 74.164062 117.066406 75.027344 111.820312 76.25 106.65625 C 78.609375 96.652344 84.921875 89.40625 93.066406 83.535156 C 102.976562 76.390625 114.070312 71.707031 125.5625 67.859375 C 141.757812 62.441406 158.3125 58.371094 175.132812 55.507812 C 190.367188 52.917969 205.621094 50.382812 221.015625 48.785156 C 234.660156 47.363281 248.328125 46.273438 262.007812 45.25 C 286.339844 43.4375 310.6875 42.167969 335.085938 41.941406 C 341.347656 41.882812 344.078125 44.585938 344.085938 50.851562 C 344.113281 70.015625 343.90625 89.1875 344.238281 108.34375 C 344.804688 140.921875 344.21875 173.503906 344.742188 206.078125 C 345.257812 238.238281 344.71875 270.402344 345.261719 302.554688 C 345.796875 334.21875 345.222656 365.882812 345.753906 397.539062 C 346.289062 429.367188 345.9375 461.191406 346.214844 493.019531 C 346.226562 494.109375 346.226562 495.191406 345.59375 496.34375 C 341.65625 496.5 337.8125 496.5 333.734375 496.5 M 330.851562 85.75 C 330.734375 76.671875 330.550781 67.59375 330.539062 58.511719 C 330.535156 56.191406 329.746094 55.496094 327.476562 55.589844 C 321.320312 55.839844 315.15625 55.765625 308.992188 55.996094 C 290.433594 56.699219 271.917969 57.890625 253.40625 59.402344 C 233.429688 61.03125 213.503906 63.046875 193.699219 66.125 C 170.492188 69.734375 147.484375 74.242188 125.296875 82.21875 C 115.761719 85.644531 106.625 89.835938 98.617188 96.148438 C 94 99.789062 90.519531 104.277344 89.21875 110.1875 C 87.214844 119.316406 85.792969 128.46875 86.550781 137.894531 C 87.101562 144.699219 88.660156 151.183594 91.339844 157.417969 C 96.714844 169.925781 106.035156 178.855469 117.429688 185.839844 C 133.9375 195.960938 152.175781 201.289062 171.011719 204.820312 C 188.449219 208.089844 206.066406 209.90625 223.777344 210.972656 C 237.992188 211.828125 252.210938 212.152344 266.441406 212.011719 C 286.933594 211.804688 307.425781 211.546875 327.917969 211.324219 C 331.441406 211.289062 331.460938 211.316406 331.445312 207.722656 C 331.351562 188.644531 331.339844 169.570312 331.082031 150.492188 C 330.789062 129.078125 330.910156 107.664062 330.851562 85.75 Z M 330.851562 85.75 "/>
<path style=" stroke:none;fill-rule:nonzero;fill:rgb(0%,0%,0%);fill-opacity:1;" d="M 384.328125 82.789062 C 387.605469 80.699219 389.804688 80.648438 392.3125 82.46875 C 394.832031 84.296875 395.75 87.09375 394.671875 90.464844 C 388.777344 108.933594 382.824219 127.378906 376.898438 145.835938 C 373.800781 155.5 370.703125 165.160156 367.628906 174.832031 C 366.71875 177.695312 365.230469 180.03125 362.050781 180.597656 C 357.082031 181.480469 352.992188 176.960938 354.492188 172.039062 C 357.128906 163.367188 360.007812 154.765625 362.785156 146.132812 C 368.980469 126.886719 375.175781 107.640625 381.375 88.394531 C 382.011719 86.414062 382.542969 84.378906 384.328125 82.789062 Z M 384.328125 82.789062 "/>
<path style=" stroke:none;fill-rule:nonzero;fill:rgb(0%,0%,0%);fill-opacity:1;" d="M 377.132812 209.878906 C 371.265625 210.449219 367.839844 205.972656 369.773438 200.324219 C 373.140625 190.488281 376.632812 180.695312 380.101562 170.894531 C 385.992188 154.273438 391.90625 137.664062 397.8125 121.050781 C 398.175781 120.03125 398.511719 119 398.925781 118.003906 C 400.542969 114.132812 403.957031 112.457031 407.519531 113.757812 C 411.054688 115.046875 412.644531 118.632812 411.335938 122.570312 C 409.945312 126.75 408.507812 130.917969 407.03125 135.070312 C 398.859375 158.113281 390.65625 181.148438 382.503906 204.199219 C 381.5625 206.863281 380.164062 208.964844 377.132812 209.878906 Z M 377.132812 209.878906 "/>
<path style=" stroke:none;fill-rule:nonzero;fill:rgb(0%,0%,0%);fill-opacity:1;" d="M 209.738281 161.792969 C 194.46875 149 196.609375 126.273438 213.824219 116.707031 C 228.664062 108.464844 248.734375 117.734375 252.101562 134.386719 C 254.695312 147.203125 249.511719 158.671875 238.070312 164.597656 C 228.199219 169.707031 218.753906 168.257812 209.738281 161.792969 Z M 209.738281 161.792969 "/>
</g>
</svg>
