<?xml version="1.0" encoding="UTF-8"?>
<svg xmlns="http://www.w3.org/2000/svg" xmlns:xlink="http://www.w3.org/1999/xlink" width="50px" height="50px" viewBox="0 0 496 496" version="1.1">
<g id="surface1">
<path style=" stroke:none;fill-rule:nonzero;fill:rgb(0%,0%,0%);fill-opacity:1;" d="M 311.734375 496.5 C 307.664062 495.410156 303.792969 494.433594 300.042969 493.035156 C 290.296875 489.402344 281.191406 484.59375 273.09375 478.039062 C 266.859375 472.996094 262.746094 466.371094 259.691406 459.046875 C 254.335938 446.21875 252.304688 432.667969 250.96875 418.964844 C 249.808594 407.101562 249.570312 395.203125 249.25 383.292969 C 248.882812 369.472656 248.640625 355.648438 248.238281 341.828125 C 247.792969 326.609375 246.957031 311.394531 244.773438 296.300781 C 243.246094 285.742188 241.0625 275.316406 237.207031 265.316406 C 233.699219 256.230469 228.347656 248.46875 221.171875 241.804688 C 208.832031 230.339844 195.625 220.144531 180.421875 212.761719 C 171.203125 208.285156 161.511719 205.289062 151.148438 205.242188 C 143.574219 205.210938 136.300781 206.929688 129.234375 209.613281 C 117.003906 214.257812 106.222656 220.992188 98.3125 231.613281 C 92.773438 239.050781 89.601562 247.65625 86.824219 256.433594 C 81.304688 273.871094 78.195312 291.820312 75.371094 309.816406 C 73.757812 320.078125 72.941406 330.46875 71.6875 340.789062 C 69.777344 356.492188 68.929688 372.28125 67.753906 388.042969 C 66.957031 398.746094 66.613281 409.484375 66.152344 420.210938 C 65.222656 441.925781 64.46875 463.648438 64.46875 485.390625 C 64.46875 488.960938 65.035156 492.550781 64.046875 496.292969 C 59.988281 496.5 55.980469 496.5 51.734375 496.5 C 49.609375 492.757812 50.066406 488.855469 50.320312 484.839844 C 50.773438 477.699219 50.632812 470.519531 50.742188 463.359375 C 51.011719 446.367188 51.722656 429.386719 52.578125 412.429688 C 53.355469 396.980469 54.105469 381.511719 55.425781 366.089844 C 56.476562 353.828125 57.574219 341.566406 58.988281 329.34375 C 61.242188 309.839844 64.074219 290.417969 68.542969 271.269531 C 71.308594 259.414062 74.609375 247.730469 79.652344 236.621094 C 87.359375 219.652344 100.476562 208.210938 117.070312 200.398438 C 127.269531 195.597656 137.925781 192.417969 149.234375 192.019531 C 157.367188 191.730469 165.296875 193.214844 173.058594 195.683594 C 185.25 199.558594 196.289062 205.664062 206.753906 212.890625 C 217.070312 220.011719 226.605469 228.085938 235.355469 237.039062 C 243.121094 244.988281 248.0625 254.660156 251.648438 265.113281 C 257.152344 281.160156 259.25 297.796875 260.621094 314.585938 C 261.566406 326.128906 261.878906 337.695312 262.183594 349.269531 C 262.570312 364.003906 262.738281 378.75 263.265625 393.476562 C 263.871094 410.34375 264.675781 427.246094 269.011719 443.714844 C 270.4375 449.125 272.367188 454.328125 274.96875 459.3125 C 279.140625 467.3125 286.386719 471.734375 293.898438 475.785156 C 307.621094 483.1875 322.414062 486.585938 337.925781 485.855469 C 363.265625 484.660156 384.558594 474.914062 400.257812 454.46875 C 406.945312 445.765625 410.828125 435.679688 413.871094 425.199219 C 419.589844 405.511719 423.535156 385.417969 427.074219 365.273438 C 429.300781 352.609375 431.058594 339.832031 432.535156 327.027344 C 433.691406 317.03125 434.835938 307.035156 435.46875 297.003906 C 436.175781 285.722656 436.832031 274.4375 436.023438 263.089844 C 435.183594 251.304688 434.101562 239.542969 433.253906 227.761719 C 432.792969 221.394531 431.304688 215.136719 430.738281 208.757812 C 430.214844 202.878906 429.84375 196.984375 429.015625 191.125 C 428.511719 187.578125 431.597656 184.203125 435.132812 183.863281 C 439.277344 183.464844 442.578125 186.175781 443.015625 190.445312 C 443.742188 197.566406 443.980469 204.765625 445.210938 211.796875 C 446.722656 220.429688 446.929688 229.160156 447.941406 237.824219 C 448.410156 241.859375 448.605469 245.945312 448.90625 250.007812 C 449.257812 254.734375 449.992188 259.410156 450.25 264.15625 C 450.667969 271.746094 450.1875 279.296875 449.894531 286.855469 C 449.515625 296.503906 448.722656 306.121094 447.714844 315.734375 C 446.285156 329.386719 444.414062 342.964844 442.398438 356.542969 C 440.617188 368.566406 438.394531 380.496094 435.96875 392.386719 C 432.925781 407.304688 429.648438 422.195312 424.730469 436.640625 C 417.585938 457.632812 404.644531 473.976562 385.515625 485.390625 C 377.144531 490.386719 368.214844 493.894531 358.65625 496.402344 C 342.988281 496.5 327.480469 496.5 311.734375 496.5 Z M 311.734375 496.5 "/>
<path style=" stroke:none;fill-rule:nonzero;fill:rgb(0%,0%,0%);fill-opacity:1;" d="M 445.699219 168.265625 C 428.335938 177.222656 406.960938 170.5625 397.921875 152.410156 C 390.636719 137.785156 395.882812 119.199219 409.753906 110.058594 C 427.5 98.371094 450.902344 104.238281 460.546875 122.894531 C 468.738281 138.742188 462.996094 157.628906 448.234375 166.789062 C 447.457031 167.273438 446.652344 167.714844 445.699219 168.265625 M 408.722656 140.457031 C 410.636719 152.886719 419.992188 160.25 432.941406 158.726562 C 443.015625 157.542969 450.855469 148.023438 450.398438 137.628906 C 449.875 125.714844 441.375 118.152344 431.667969 117.328125 C 417.421875 116.117188 407.554688 127.269531 408.722656 140.457031 Z M 408.722656 140.457031 "/>
</g>
</svg>
