<?xml version="1.0" encoding="UTF-8"?>
<svg xmlns="http://www.w3.org/2000/svg" xmlns:xlink="http://www.w3.org/1999/xlink" width="50px" height="50px" viewBox="0 0 496 496" version="1.1">
<g id="surface1">
<path style=" stroke:none;fill-rule:nonzero;fill:rgb(0%,0%,0%);fill-opacity:1;" d="M 66.234375 496.5 C 64.21875 490.621094 66.9375 487.039062 73.367188 487.015625 C 94.699219 486.929688 116.03125 486.882812 137.359375 486.863281 C 171.773438 486.828125 206.183594 486.835938 240.597656 486.808594 C 245.753906 486.804688 244.933594 487.074219 244.929688 482.332031 C 244.914062 465.25 244.816406 448.167969 244.871094 431.085938 C 244.878906 428.675781 244.144531 427.941406 241.753906 427.953125 C 221.507812 428.046875 201.261719 428.035156 181.015625 428.066406 C 179.429688 428.070312 177.859375 428.066406 176.300781 427.679688 C 172.070312 426.628906 169.90625 421.851562 172.371094 418.246094 C 175.835938 413.183594 177.867188 407.429688 180.703125 402.070312 C 189.871094 384.71875 199.679688 367.804688 214.015625 354.039062 C 221.949219 346.425781 230.914062 340.507812 241.65625 337.679688 C 243.507812 337.195312 243.945312 336.328125 243.933594 334.570312 C 243.84375 316.15625 244.085938 297.734375 243.714844 279.328125 C 243.253906 256.25 243.714844 233.167969 243.253906 210.097656 C 242.75 184.855469 243.234375 159.605469 242.722656 134.371094 C 242.238281 110.542969 242.566406 86.714844 242.242188 62.890625 C 242.1875 58.890625 244.617188 56.054688 248.191406 55.871094 C 251.609375 55.691406 254.308594 58.167969 254.789062 61.988281 C 254.925781 63.058594 254.972656 64.148438 254.976562 65.226562 C 255.058594 86.308594 254.835938 107.394531 255.273438 128.46875 C 255.78125 153.128906 255.304688 177.789062 255.8125 202.445312 C 256.296875 225.855469 255.804688 249.273438 256.28125 272.675781 C 256.691406 292.921875 256.554688 313.164062 256.648438 333.410156 C 256.65625 335.230469 256.914062 336.242188 259.09375 336.546875 C 274.910156 338.757812 287.394531 347.28125 298.570312 358 C 312.320312 371.191406 323.058594 386.742188 333.027344 402.859375 C 335.433594 406.753906 337.753906 410.707031 340.042969 414.671875 C 343.386719 420.457031 339.238281 427.9375 332.578125 427.949219 C 308.582031 428 284.585938 427.984375 260.589844 427.878906 C 258.300781 427.871094 257.539062 428.386719 257.554688 430.746094 C 257.664062 448.492188 257.667969 466.238281 257.671875 483.988281 C 257.671875 485.554688 257.679688 486.589844 259.875 486.585938 C 308.535156 486.449219 357.195312 486.410156 405.855469 486.308594 C 417.097656 486.285156 428.339844 486.105469 439.582031 486 C 441.59375 485.980469 443.578125 486.085938 445.339844 487.265625 C 448.175781 489.167969 448.769531 492.078125 447.058594 496.316406 C 320.15625 496.5 193.3125 496.5 66.234375 496.5 M 274.75 413.839844 C 291.0625 413.636719 307.378906 413.433594 324.082031 413.226562 C 323.582031 412.175781 323.402344 411.71875 323.15625 411.300781 C 315.011719 397.390625 305.738281 384.277344 294.863281 372.367188 C 287.976562 364.832031 280.332031 358.148438 271.101562 353.535156 C 266.796875 351.382812 262.335938 349.675781 257.597656 349.363281 C 256.917969 350.121094 257.03125 350.816406 257.03125 351.464844 C 257.085938 371.542969 257.167969 391.621094 257.183594 411.699219 C 257.183594 413.457031 257.792969 414.03125 259.503906 413.992188 C 264.417969 413.878906 269.335938 413.882812 274.75 413.839844 M 216.597656 369.839844 C 216.050781 370.472656 215.488281 371.085938 214.964844 371.734375 C 206.023438 382.800781 198.835938 394.980469 192.289062 407.566406 C 191.152344 409.746094 190.167969 412.003906 189.132812 414.183594 C 190.367188 415.140625 191.492188 414.835938 192.53125 414.828125 C 208.941406 414.679688 225.351562 414.457031 241.765625 414.382812 C 244.132812 414.371094 244.480469 413.390625 244.46875 411.382812 C 244.375 392.214844 244.355469 373.050781 244.292969 353.882812 C 244.289062 352.761719 244.503906 351.570312 243.78125 350.515625 C 242.117188 350.652344 240.695312 351.351562 239.253906 351.984375 C 230.277344 355.933594 223.222656 362.335938 216.597656 369.839844 Z M 216.597656 369.839844 "/>
</g>
</svg>
