<?xml version="1.0" encoding="UTF-8"?>
<svg xmlns="http://www.w3.org/2000/svg" xmlns:xlink="http://www.w3.org/1999/xlink" width="75px" height="75px" viewBox="0 0 75 75" version="1.1">
<g id="surface1">
<path style=" stroke:none;fill-rule:nonzero;fill:rgb(0%,0%,0%);fill-opacity:1;" d="M 75.074219 42.605469 C 73.84375 44.40625 72.609375 46.171875 71.382812 47.941406 C 68.28125 52.394531 65.183594 56.851562 62.085938 61.308594 C 61.578125 62.042969 61.070312 62.78125 60.566406 63.519531 C 60.105469 64.191406 59.609375 64.378906 59.089844 64.074219 C 58.5 63.730469 58.246094 62.925781 58.601562 62.292969 C 58.921875 61.722656 59.3125 61.191406 59.6875 60.65625 C 61.898438 57.46875 64.113281 54.285156 66.328125 51.101562 C 67.816406 48.960938 69.308594 46.820312 70.792969 44.679688 C 71.152344 44.164062 71.5 43.644531 71.851562 43.132812 C 71.714844 42.980469 71.570312 43.023438 71.4375 43.019531 C 69.132812 42.996094 66.828125 42.980469 64.523438 42.949219 C 64.214844 42.945312 64.015625 43.035156 63.828125 43.285156 C 61.40625 46.457031 58.976562 49.625 56.546875 52.792969 C 56.042969 53.453125 55.542969 54.117188 55.035156 54.773438 C 54.652344 55.265625 54.234375 55.425781 53.804688 55.25 C 53.300781 55.046875 52.960938 54.460938 53.019531 53.910156 C 53.066406 53.460938 53.320312 53.117188 53.582031 52.773438 C 55.871094 49.785156 58.164062 46.796875 60.453125 43.808594 C 60.648438 43.550781 60.890625 43.328125 61.03125 42.984375 C 60.523438 42.863281 60.03125 42.921875 59.550781 42.917969 C 53.390625 42.890625 47.230469 42.910156 41.070312 42.851562 C 34.367188 42.789062 27.667969 42.871094 20.964844 42.78125 C 16.164062 42.714844 11.367188 42.75 6.566406 42.726562 C 5.808594 42.722656 5.925781 42.714844 5.925781 43.386719 C 5.910156 49.09375 5.9375 54.800781 5.882812 60.507812 C 5.835938 65.058594 5.867188 69.605469 5.84375 74.152344 C 5.839844 74.441406 5.832031 74.730469 5.75 75.042969 C 5.089844 75.074219 4.433594 75.074219 3.738281 75.074219 C 3.597656 74.746094 3.601562 74.40625 3.601562 74.066406 C 3.613281 70.992188 3.597656 67.917969 3.636719 64.84375 C 3.726562 57.925781 3.640625 51.007812 3.707031 44.09375 C 3.714844 43.1875 3.769531 42.28125 3.742188 41.375 C 3.726562 40.761719 4.484375 40.011719 5.109375 40.027344 C 7.273438 40.082031 9.445312 40.011719 11.609375 40.078125 C 19.503906 40.320312 27.402344 40.117188 35.300781 40.230469 C 42.457031 40.332031 49.613281 40.21875 56.769531 40.308594 C 62.4375 40.382812 68.109375 40.347656 73.777344 40.371094 C 74.25 40.375 74.675781 40.476562 75.054688 40.8125 C 75.074219 41.40625 75.074219 41.988281 75.074219 42.605469 Z M 75.074219 42.605469 "/>
<path style=" stroke:none;fill-rule:nonzero;fill:rgb(0%,0%,0%);fill-opacity:1;" d="M 6.445312 27.597656 C 6.453125 30.113281 6.457031 32.59375 6.460938 35.078125 C 6.460938 35.664062 6.0625 36.085938 5.515625 36.082031 C 4.984375 36.082031 4.59375 35.671875 4.578125 35.101562 C 4.46875 31.714844 4.5625 28.328125 4.5 24.941406 C 4.425781 20.808594 4.457031 16.679688 4.425781 12.550781 C 4.421875 12.136719 4.539062 11.808594 4.910156 11.601562 C 5.238281 11.414062 5.558594 11.433594 5.875 11.625 C 6.101562 11.765625 6.253906 11.964844 6.296875 12.222656 C 6.332031 12.433594 6.34375 12.648438 6.34375 12.863281 C 6.359375 16.25 6.363281 19.636719 6.382812 23.027344 C 6.390625 24.535156 6.425781 26.046875 6.445312 27.597656 Z M 6.445312 27.597656 "/>
<path style=" stroke:none;fill-rule:nonzero;fill:rgb(0%,0%,0%);fill-opacity:1;" d="M 12.148438 24.796875 C 12.144531 23.804688 12.144531 22.847656 12.140625 21.886719 C 12.140625 21.304688 12.492188 20.886719 13.019531 20.847656 C 13.535156 20.808594 13.953125 21.1875 14.027344 21.757812 C 14.050781 21.945312 14.0625 22.136719 14.0625 22.324219 C 14.074219 24.113281 14.046875 25.902344 14.097656 27.691406 C 14.167969 30.121094 14.15625 32.550781 14.167969 34.980469 C 14.171875 35.632812 13.800781 36.074219 13.238281 36.082031 C 12.785156 36.089844 12.289062 35.675781 12.273438 35.035156 C 12.25 34.128906 12.238281 33.222656 12.226562 32.316406 C 12.199219 29.824219 12.175781 27.328125 12.148438 24.796875 Z M 12.148438 24.796875 "/>
<path style=" stroke:none;fill-rule:nonzero;fill:rgb(0%,0%,0%);fill-opacity:1;" d="M 14.839844 63.042969 C 14.699219 64.308594 14.714844 65.539062 14.765625 66.769531 C 14.808594 67.769531 14.960938 68.746094 15.292969 69.691406 C 15.402344 70.007812 15.578125 70.277344 15.746094 70.558594 C 16.050781 71.078125 16.042969 71.589844 15.707031 72.089844 C 15.269531 72.742188 14.46875 72.75 14.003906 72.113281 C 13.371094 71.25 13.046875 70.261719 12.835938 69.230469 C 12.433594 67.277344 12.46875 65.304688 12.59375 63.328125 C 12.707031 61.515625 13.011719 59.730469 13.511719 57.984375 C 14.027344 56.179688 14.699219 54.445312 15.992188 53.035156 C 16.578125 52.394531 17.292969 51.960938 18.144531 51.78125 C 19.09375 51.578125 19.9375 51.886719 20.734375 52.351562 C 21.796875 52.972656 22.691406 53.777344 23.34375 54.824219 C 23.9375 55.777344 24.277344 56.828125 24.433594 57.9375 C 24.726562 59.984375 24.453125 62.039062 24.480469 64.089844 C 24.496094 65.300781 24.640625 66.46875 25.167969 67.574219 C 25.515625 68.308594 26.304688 68.585938 27.019531 68.21875 C 27.90625 67.761719 28.40625 66.984375 28.71875 66.085938 C 29.105469 64.976562 29.28125 63.820312 29.308594 62.640625 C 29.351562 60.738281 29.214844 58.84375 29.042969 56.949219 C 28.910156 55.484375 28.765625 54.015625 28.78125 52.542969 C 28.792969 51.824219 29.269531 51.300781 29.886719 51.308594 C 30.402344 51.3125 30.835938 51.726562 30.945312 52.3125 C 31.085938 53.074219 31.007812 53.84375 31.085938 54.609375 C 31.230469 55.984375 31.367188 57.363281 31.429688 58.746094 C 31.5 60.253906 31.617188 61.761719 31.492188 63.273438 C 31.402344 64.382812 31.25 65.472656 30.945312 66.542969 C 30.539062 67.957031 29.804688 69.160156 28.671875 70.121094 C 26.917969 71.609375 24.425781 71.117188 23.367188 69.074219 C 22.605469 67.613281 22.285156 66.058594 22.269531 64.417969 C 22.253906 62.832031 22.355469 61.246094 22.347656 59.660156 C 22.339844 58.609375 22.214844 57.570312 21.71875 56.621094 C 21.175781 55.578125 20.308594 54.886719 19.261719 54.417969 C 18.539062 54.097656 17.71875 54.488281 17.152344 55.316406 C 16.097656 56.855469 15.578125 58.601562 15.230469 60.398438 C 15.0625 61.261719 14.871094 62.125 14.839844 63.042969 Z M 14.839844 63.042969 "/>
</g>
</svg>
