<?xml version="1.0" encoding="UTF-8"?>
<svg xmlns="http://www.w3.org/2000/svg" xmlns:xlink="http://www.w3.org/1999/xlink" width="50px" height="50px" viewBox="0 0 496 496" version="1.1">
<g id="surface1">
<path style=" stroke:none;fill-rule:nonzero;fill:rgb(0%,0%,0%);fill-opacity:1;" d="M 238.683594 136.027344 C 238.617188 186.769531 238.730469 237.265625 238.398438 287.761719 C 238.222656 313.925781 238.320312 340.085938 238.121094 366.246094 C 238.101562 368.710938 238.742188 369.535156 241.285156 369.640625 C 247.453125 369.894531 253.613281 369.789062 259.773438 369.816406 C 277.523438 369.902344 295.273438 369.925781 313.019531 369.996094 C 314.347656 370 315.699219 370.0625 316.988281 370.332031 C 320.234375 371.007812 322.421875 373.953125 322.113281 377.035156 C 321.785156 380.335938 319.128906 382.777344 315.679688 382.828125 C 313.347656 382.859375 311.015625 382.71875 308.683594 382.710938 C 285.9375 382.621094 263.1875 382.585938 240.441406 382.410156 C 238.101562 382.390625 238.140625 383.503906 238.140625 385.144531 C 238.109375 410.0625 238.050781 434.976562 238 459.890625 C 237.992188 462.378906 237.996094 464.867188 237.996094 467.292969 C 238.777344 468.039062 239.644531 467.761719 240.449219 467.761719 C 291.527344 467.847656 342.605469 467.917969 393.6875 468.011719 C 395.09375 468.011719 396.53125 468.054688 397.90625 468.316406 C 401.089844 468.921875 403.113281 471.363281 403.144531 474.417969 C 403.175781 477.570312 401.078125 480.15625 397.816406 480.699219 C 394.265625 481.292969 390.675781 480.761719 387.105469 480.757812 C 335.277344 480.679688 283.445312 480.777344 231.621094 480.40625 C 176.878906 480.015625 122.140625 480.390625 67.402344 479.976562 C 65.992188 479.964844 64.554688 479.90625 63.183594 479.613281 C 60.339844 479.011719 58.324219 476.316406 58.355469 473.410156 C 58.386719 470.609375 60.355469 468.089844 63.101562 467.378906 C 65.484375 466.761719 67.910156 467.128906 70.320312 467.132812 C 114.5625 467.234375 158.808594 467.332031 203.050781 467.429688 C 209.550781 467.445312 216.050781 467.410156 222.550781 467.519531 C 224.582031 467.554688 225.316406 466.929688 225.3125 464.824219 C 225.277344 438.160156 225.285156 411.496094 225.378906 384.832031 C 225.386719 382.414062 224.300781 382.15625 222.347656 382.152344 C 202.347656 382.132812 182.351562 382.054688 162.351562 381.976562 C 161.109375 381.96875 159.84375 381.914062 158.625 381.691406 C 155.582031 381.132812 153.410156 378.550781 153.363281 375.574219 C 153.316406 372.617188 155.4375 370.027344 158.476562 369.316406 C 160.214844 368.910156 161.957031 369.25 163.695312 369.253906 C 183.445312 369.308594 203.195312 369.324219 222.941406 369.460938 C 225.390625 369.476562 225.355469 368.195312 225.355469 366.46875 C 225.398438 344.300781 225.335938 322.136719 225.558594 299.972656 C 226.136719 243.394531 225.597656 186.816406 226.058594 130.242188 C 226.078125 127.855469 225.589844 126.523438 223.0625 125.691406 C 209.449219 121.21875 201.144531 111.601562 197.421875 98 C 191.660156 76.941406 205.824219 54.308594 227.304688 49.9375 C 246.433594 46.050781 265.746094 57.527344 271.753906 76.105469 C 277.242188 93.070312 270.996094 111.109375 256.621094 121.105469 C 251.996094 124.320312 246.839844 126.445312 241.203125 127.183594 C 239.4375 127.414062 238.492188 128.015625 238.679688 130.03125 C 238.859375 131.929688 238.695312 133.863281 238.683594 136.027344 M 260.773438 84.550781 C 260.644531 83.984375 260.507812 83.417969 260.390625 82.847656 C 257.855469 70.671875 247.53125 62.242188 235.109375 62.070312 C 220.101562 61.863281 206.59375 75.125 209.375 93.074219 C 211.175781 104.710938 220.894531 113.484375 231.332031 114.597656 C 240.738281 115.601562 248.398438 112.886719 254.578125 105.921875 C 259.871094 99.953125 261.484375 92.792969 260.773438 84.550781 Z M 260.773438 84.550781 "/>
</g>
</svg>
