<?xml version="1.0" encoding="UTF-8"?>
<svg xmlns="http://www.w3.org/2000/svg" xmlns:xlink="http://www.w3.org/1999/xlink" width="50px" height="50px" viewBox="0 0 496 496" version="1.1">
<g id="surface1">
<path style=" stroke:none;fill-rule:nonzero;fill:rgb(0%,0%,0%);fill-opacity:1;" d="M 204.734375 496.5 C 198.226562 494.875 191.921875 493.382812 185.769531 491.273438 C 161.71875 483.019531 140.375 470.265625 121.476562 453.277344 C 107.109375 440.367188 94.90625 425.664062 84.832031 409.242188 C 72.015625 388.355469 62.921875 365.945312 57.675781 341.933594 C 53.507812 322.855469 51.824219 303.605469 52.496094 284.136719 C 52.839844 274.242188 54.085938 264.425781 55.746094 254.660156 C 58.640625 237.589844 63.480469 221.085938 70.375 205.226562 C 82.988281 176.214844 100.957031 151.078125 125.046875 130.414062 C 145.726562 112.671875 169.144531 100.050781 195.375 92.699219 C 209.222656 88.820312 223.339844 87.097656 237.742188 86.738281 C 265.777344 86.042969 292.285156 91.9375 317.433594 104.121094 C 350.226562 120.003906 375.976562 143.832031 395.695312 174.296875 C 408.144531 193.527344 417.25 214.257812 422.890625 236.488281 C 423.195312 237.683594 423.589844 238.90625 424.203125 239.96875 C 427.148438 245.101562 423.132812 250.730469 417.390625 250.804688 C 377.8125 251.308594 338.230469 250.753906 298.65625 251.253906 C 259.160156 251.753906 219.664062 251.609375 180.171875 251.65625 C 162.925781 251.675781 145.675781 251.804688 128.433594 251.226562 C 124.191406 251.085938 121.164062 248.28125 121.128906 244.328125 C 121.09375 240.222656 124.144531 237.328125 128.539062 237.328125 C 185.53125 237.320312 242.527344 237.582031 299.523438 237.214844 C 334.683594 236.988281 369.84375 236.984375 405.007812 236.835938 C 408.140625 236.824219 408.113281 236.796875 407.21875 233.730469 C 400.574219 210.9375 390.261719 189.929688 375.960938 171 C 356.265625 144.933594 331.597656 125.113281 301.152344 112.800781 C 286.871094 107.027344 272.097656 103.382812 256.707031 102.015625 C 240 100.527344 223.421875 101.199219 207.082031 104.808594 C 186.976562 109.253906 168.277344 117.242188 151.15625 128.789062 C 117.117188 151.746094 93.882812 183.058594 79.554688 221.277344 C 74.449219 234.894531 71.074219 248.96875 68.832031 263.300781 C 67.816406 269.773438 67.402344 276.339844 67.097656 282.90625 C 66.722656 291.070312 66.816406 299.226562 67.238281 307.363281 C 68.046875 322.964844 70.996094 338.210938 75.394531 353.195312 C 82.152344 376.226562 92.6875 397.375 107.140625 416.5 C 122.089844 436.28125 140.234375 452.519531 161.917969 464.691406 C 177.136719 473.238281 193.253906 479.289062 210.40625 482.695312 C 219.09375 484.421875 227.820312 485.171875 236.640625 485.472656 C 247.816406 485.847656 258.949219 485.320312 269.910156 483.242188 C 283.445312 480.679688 296.519531 476.535156 309.050781 470.703125 C 327.84375 461.953125 344.445312 450.085938 359.011719 435.425781 C 372.179688 422.171875 383.109375 407.210938 391.890625 390.675781 C 400.855469 373.796875 407.320312 356.035156 411.234375 337.335938 C 411.417969 336.453125 411.746094 335.574219 411.429688 334.621094 C 410.382812 333.847656 409.171875 334.207031 408.050781 334.207031 C 336.644531 334.195312 265.238281 334.203125 193.832031 334.210938 C 172.933594 334.214844 152.039062 334.214844 131.144531 334.210938 C 126.746094 334.210938 123.503906 331.359375 123.550781 327.34375 C 123.585938 324.042969 126.226562 320.191406 131.261719 320.257812 C 146.339844 320.460938 161.421875 320.324219 176.503906 320.320312 C 256.898438 320.316406 337.292969 320.316406 417.691406 320.3125 C 423.050781 320.3125 423.921875 321.425781 426.347656 326.089844 C 428.03125 329.316406 426.996094 332.074219 426.453125 334.914062 C 422.199219 357.132812 415 378.34375 404.1875 398.265625 C 392.109375 420.523438 376.714844 440.101562 357.417969 456.617188 C 336.703125 474.347656 313.246094 486.847656 287.0625 494.304688 C 284.34375 495.078125 281.558594 495.632812 278.652344 496.394531 C 253.988281 496.5 229.480469 496.5 204.734375 496.5 Z M 204.734375 496.5 "/>
<path style=" stroke:none;fill-rule:nonzero;fill:rgb(0%,0%,0%);fill-opacity:1;" d="M 286.472656 180.40625 C 282.003906 165.832031 290.972656 150.53125 305.792969 148.058594 C 322.59375 145.253906 334.402344 157.898438 335.171875 170.855469 C 335.746094 180.558594 332.023438 188.3125 323.992188 193.667969 C 316.105469 198.925781 307.578125 199.296875 299.082031 195.160156 C 292.90625 192.148438 288.773438 187.128906 286.472656 180.40625 Z M 286.472656 180.40625 "/>
<path style=" stroke:none;fill-rule:nonzero;fill:rgb(0%,0%,0%);fill-opacity:1;" d="M 463.246094 87.839844 C 465.425781 91.085938 465.097656 94.113281 463.078125 97.070312 C 454.359375 109.875 445.625 122.667969 436.910156 135.472656 C 430.816406 144.421875 424.746094 153.386719 418.660156 162.335938 C 417.675781 163.78125 416.734375 165.269531 415.632812 166.621094 C 413.496094 169.242188 410.308594 169.84375 407.578125 168.269531 C 404.585938 166.546875 403.117188 162.96875 404.261719 159.9375 C 404.667969 158.859375 405.261719 157.828125 405.914062 156.871094 C 421.269531 134.277344 436.640625 111.699219 452.019531 89.121094 C 455.105469 84.589844 459.257812 84.070312 463.246094 87.839844 Z M 463.246094 87.839844 "/>
<path style=" stroke:none;fill-rule:nonzero;fill:rgb(0%,0%,0%);fill-opacity:1;" d="M 401.257812 113.273438 C 404.875 107.960938 408.421875 102.816406 411.902344 97.632812 C 414.625 93.582031 418.269531 92.394531 421.625 94.570312 C 424.980469 96.746094 425.886719 101.179688 423.375 104.9375 C 415.96875 116.015625 408.421875 126.996094 400.929688 138.011719 C 399.335938 140.355469 397.769531 142.714844 396.128906 145.019531 C 393.40625 148.847656 389.777344 149.777344 386.492188 147.550781 C 383.085938 145.238281 382.421875 141.03125 385.007812 137.183594 C 390.351562 129.238281 395.769531 121.339844 401.257812 113.273438 Z M 401.257812 113.273438 "/>
</g>
</svg>
