<?xml version="1.0" encoding="UTF-8"?>
<svg xmlns="http://www.w3.org/2000/svg" xmlns:xlink="http://www.w3.org/1999/xlink" width="50px" height="50px" viewBox="0 0 496 496" version="1.1">
<g id="surface1">
<path style=" stroke:none;fill-rule:nonzero;fill:rgb(0%,0%,0%);fill-opacity:1;" d="M 234.582031 261.507812 C 234.835938 279.664062 235.460938 297.570312 235.117188 315.484375 C 235.070312 317.914062 235.964844 318.46875 238.167969 318.355469 C 255.058594 317.476562 271.980469 318.164062 288.878906 317.453125 C 293.4375 317.261719 297.328125 318.738281 299.460938 323.089844 C 302.769531 329.839844 298.109375 337.28125 290.367188 337.601562 C 286.207031 337.769531 282.035156 337.636719 277.871094 337.683594 C 264.460938 337.832031 251.050781 338.046875 237.640625 338.128906 C 235.632812 338.140625 235.105469 338.839844 235.070312 340.742188 C 234.695312 361.570312 234.480469 382.394531 234.730469 403.222656 C 234.757812 405.46875 234.996094 407.714844 234.980469 409.960938 C 234.96875 411.59375 235.53125 412.273438 237.234375 412.503906 C 245.75 413.652344 253.519531 416.742188 260.113281 422.296875 C 268.675781 429.515625 273.753906 438.570312 274.730469 449.96875 C 276.410156 469.5 261.988281 486.449219 244.921875 491.300781 C 229.253906 495.757812 214.867188 493.335938 202.214844 483.035156 C 193.679688 476.085938 188.75 466.96875 187.792969 455.78125 C 186.226562 437.542969 198.003906 421.773438 213.855469 415.535156 C 216.195312 414.617188 216.929688 413.464844 216.894531 410.988281 C 216.726562 398.746094 216.0625 386.503906 216.527344 374.261719 C 216.9375 363.433594 216.730469 352.605469 216.898438 341.78125 C 216.945312 338.625 216.914062 338.648438 213.6875 338.632812 C 202.527344 338.589844 191.367188 338.832031 180.207031 339.058594 C 173.714844 339.195312 169.1875 334.6875 169.335938 328.628906 C 169.46875 323.171875 173.710938 319.109375 179.6875 318.917969 C 184.015625 318.777344 188.351562 318.894531 192.683594 318.832031 C 200.011719 318.722656 207.339844 318.515625 214.667969 318.464844 C 216.589844 318.453125 217.261719 317.835938 217.292969 315.871094 C 217.480469 304.125 217.0625 292.386719 216.886719 280.644531 C 216.578125 260.242188 215.625 239.84375 215.96875 219.433594 C 216.203125 205.617188 216.632812 191.796875 217.910156 178.035156 C 219.835938 157.269531 223.671875 136.878906 230.332031 117.066406 C 234.082031 105.902344 240.347656 96.234375 248.027344 87.453125 C 257.710938 76.382812 268.785156 67.007812 282.054688 60.421875 C 289.292969 56.832031 296.898438 54.3125 304.972656 53.933594 C 320.085938 53.21875 331.730469 59.664062 339.996094 72.160156 C 344.621094 79.148438 348.164062 86.65625 349.390625 95.089844 C 350.25 101.011719 350.050781 106.867188 348.433594 112.628906 C 347.179688 117.089844 342.226562 119.960938 337.859375 118.914062 C 332.832031 117.707031 329.824219 112.933594 331.011719 107.558594 C 333.710938 95.34375 328.679688 85.691406 320.71875 77.273438 C 316.046875 72.324219 309.730469 71.320312 303.136719 72.394531 C 292.789062 74.078125 284.101562 79.261719 276.058594 85.628906 C 265.03125 94.359375 255.589844 104.515625 249.726562 117.472656 C 245.59375 126.601562 243.253906 136.351562 241.117188 146.117188 C 237.675781 161.835938 235.953125 177.757812 234.964844 193.820312 C 233.738281 213.722656 234.285156 233.621094 234.21875 253.523438 C 234.210938 256.101562 234.453125 258.679688 234.582031 261.507812 M 230.773438 473.339844 C 235.371094 473.457031 239.703125 472.425781 243.722656 470.214844 C 254.910156 464.050781 258.234375 451.121094 251.121094 441.59375 C 242.375 429.886719 223.097656 428.882812 213.152344 439.59375 C 208.871094 444.203125 206.710938 449.566406 207.988281 455.816406 C 210.085938 466.042969 219.308594 473.144531 230.773438 473.339844 Z M 230.773438 473.339844 "/>
</g>
</svg>
