<?xml version="1.0" encoding="UTF-8"?>
<svg xmlns="http://www.w3.org/2000/svg" xmlns:xlink="http://www.w3.org/1999/xlink" width="75px" height="75px" viewBox="0 0 75 75" version="1.1">
<g id="surface1">
<path style=" stroke:none;fill-rule:nonzero;fill:rgb(0%,0%,0%);fill-opacity:1;" d="M 19.617188 75.074219 C 18.734375 74.578125 18.484375 73.824219 18.589844 72.886719 C 18.640625 72.425781 18.648438 71.957031 18.652344 71.492188 C 18.675781 69.742188 18.878906 68.003906 19.003906 66.261719 C 19.082031 65.179688 19.21875 64.109375 19.363281 63.039062 C 19.511719 61.960938 19.664062 60.882812 19.886719 59.8125 C 20.035156 59.101562 20.144531 58.382812 20.300781 57.671875 C 20.921875 54.804688 21.730469 51.996094 22.960938 49.324219 C 23.953125 47.175781 25.164062 45.164062 26.90625 43.519531 C 28.425781 42.085938 30.191406 41.117188 32.269531 40.769531 C 32.835938 40.671875 33.398438 40.765625 33.949219 40.890625 C 35.894531 41.335938 37.796875 41.910156 39.542969 42.894531 C 41.5 44 42.878906 45.605469 43.648438 47.742188 C 44.253906 49.414062 44.425781 51.132812 44.433594 52.890625 C 44.4375 54.917969 44.214844 56.929688 44.050781 58.945312 C 43.90625 60.761719 43.738281 62.585938 43.878906 64.410156 C 43.980469 65.671875 44.332031 66.878906 44.773438 68.058594 C 45.019531 68.71875 45.242188 69.386719 45.574219 70.011719 C 46.074219 70.957031 46.8125 71.480469 47.910156 71.429688 C 48.097656 71.421875 48.296875 71.40625 48.472656 71.457031 C 49.027344 71.617188 49.355469 71.34375 49.691406 70.949219 C 51.054688 69.351562 51.9375 67.507812 52.644531 65.546875 C 53.265625 63.832031 53.710938 62.070312 54.136719 60.300781 C 54.316406 59.558594 54.4375 58.800781 54.5625 58.042969 C 54.792969 56.660156 55.027344 55.273438 55.21875 53.882812 C 55.363281 52.824219 55.457031 51.757812 55.554688 50.695312 C 55.679688 49.332031 55.792969 47.964844 55.902344 46.597656 C 55.992188 45.445312 56.078125 44.289062 56.152344 43.136719 C 56.28125 41.125 56.425781 39.117188 56.503906 37.105469 C 56.542969 36.125 56.640625 35.148438 56.691406 34.167969 C 56.769531 32.636719 56.871094 31.105469 57.015625 29.578125 C 57.121094 28.464844 57.265625 27.355469 57.375 26.242188 C 57.480469 25.167969 57.652344 24.097656 57.757812 23.023438 C 57.875 21.820312 57.945312 20.617188 58.046875 19.414062 C 58.167969 17.945312 58.234375 16.472656 58.175781 15 C 58.160156 14.511719 58.078125 14.023438 58.03125 13.539062 C 58.011719 13.339844 57.898438 13.261719 57.710938 13.238281 C 57.050781 13.148438 56.394531 13.003906 55.730469 12.96875 C 52.789062 12.804688 49.839844 12.757812 46.890625 12.8125 C 44.652344 12.851562 42.410156 12.890625 40.171875 12.960938 C 37.59375 13.046875 35.015625 13.191406 32.4375 13.300781 C 31.292969 13.347656 30.148438 13.367188 29.003906 13.414062 C 26.816406 13.5 24.628906 13.601562 22.441406 13.6875 C 20.664062 13.753906 18.890625 13.792969 17.113281 13.777344 C 16.730469 13.773438 16.363281 13.675781 16.035156 13.472656 C 15.484375 13.128906 15.15625 12.664062 15.167969 11.984375 C 15.179688 11.316406 15.542969 10.878906 16.078125 10.5625 C 16.453125 10.339844 16.875 10.265625 17.3125 10.261719 C 18.722656 10.242188 20.132812 10.230469 21.542969 10.195312 C 23.292969 10.152344 25.042969 10.109375 26.789062 10.019531 C 28.523438 9.933594 30.257812 9.878906 31.992188 9.796875 C 34.808594 9.667969 37.625 9.554688 40.445312 9.484375 C 42.105469 9.441406 43.769531 9.4375 45.429688 9.339844 C 47.542969 9.210938 49.65625 9.421875 51.769531 9.332031 C 53.625 9.253906 55.46875 9.414062 57.308594 9.605469 C 58.226562 9.699219 59.144531 9.867188 60.019531 10.222656 C 61.304688 10.742188 61.835938 11.761719 62.015625 13.054688 C 62.273438 14.921875 62.207031 16.800781 62.128906 18.671875 C 62.078125 19.910156 61.9375 21.152344 61.828125 22.394531 C 61.730469 23.546875 61.597656 24.695312 61.464844 25.839844 C 61.371094 26.640625 61.277344 27.4375 61.152344 28.230469 C 61.011719 29.125 60.960938 30.03125 60.890625 30.933594 C 60.746094 32.777344 60.675781 34.625 60.535156 36.46875 C 60.445312 37.636719 60.417969 38.808594 60.347656 39.976562 C 60.230469 41.898438 60.109375 43.820312 59.980469 45.738281 C 59.882812 47.132812 59.796875 48.523438 59.660156 49.914062 C 59.539062 51.152344 59.417969 52.390625 59.261719 53.625 C 59.152344 54.484375 59.039062 55.34375 58.914062 56.199219 C 58.75 57.355469 58.5625 58.503906 58.335938 59.648438 C 58.125 60.71875 57.90625 61.789062 57.628906 62.84375 C 56.871094 65.75 55.941406 68.585938 54.328125 71.148438 C 53.699219 72.140625 52.980469 73.066406 52.125 73.875 C 51.324219 74.640625 50.386719 75.050781 49.261719 75.011719 C 47.902344 74.96875 46.542969 74.964844 45.242188 74.472656 C 43.84375 73.945312 42.820312 73.003906 42.089844 71.730469 C 41.285156 70.335938 40.8125 68.804688 40.351562 67.277344 C 39.753906 65.292969 39.757812 63.25 39.851562 61.214844 C 39.921875 59.605469 40.152344 58.007812 40.257812 56.402344 C 40.351562 54.910156 40.515625 53.417969 40.425781 51.917969 C 40.347656 50.632812 40.128906 49.371094 39.589844 48.1875 C 39.085938 47.078125 38.238281 46.292969 37.183594 45.714844 C 36.339844 45.257812 35.417969 44.988281 34.507812 44.699219 C 34.109375 44.574219 33.71875 44.433594 33.316406 44.339844 C 32.605469 44.171875 31.984375 44.464844 31.378906 44.789062 C 30.015625 45.515625 29.050781 46.644531 28.203125 47.902344 C 27.039062 49.628906 26.238281 51.523438 25.574219 53.484375 C 24.953125 55.320312 24.492188 57.195312 24.09375 59.089844 C 23.742188 60.761719 23.476562 62.445312 23.257812 64.136719 C 23.015625 66.003906 22.890625 67.886719 22.757812 69.769531 C 22.667969 71.011719 22.648438 72.257812 22.617188 73.503906 C 22.597656 74.1875 22.210938 74.671875 21.636719 75.054688 C 20.964844 75.074219 20.308594 75.074219 19.617188 75.074219 Z M 19.617188 75.074219 "/>
</g>
</svg>
