<?xml version="1.0" encoding="UTF-8"?>
<svg xmlns="http://www.w3.org/2000/svg" xmlns:xlink="http://www.w3.org/1999/xlink" width="50px" height="50px" viewBox="0 0 496 496" version="1.1">
<g id="surface1">
<path style=" stroke:none;fill-rule:nonzero;fill:rgb(0%,0%,0%);fill-opacity:1;" d="M 206.734375 496.5 C 204.046875 495.496094 201.375 495.25 198.972656 493.957031 C 194.363281 491.484375 190.980469 487.671875 187.675781 483.847656 C 176.808594 471.285156 170.152344 456.738281 167.226562 440.355469 C 165.523438 430.804688 164.800781 421.234375 164.832031 411.574219 C 164.875 398.824219 164.902344 386.078125 165.046875 373.332031 C 165.105469 368.390625 167.046875 365.8125 171.050781 364.679688 C 175.546875 363.410156 180.585938 366.917969 180.574219 371.597656 C 180.554688 380.09375 180.671875 388.589844 180.277344 397.085938 C 179.851562 406.242188 180.46875 415.382812 180.96875 424.53125 C 181.390625 432.21875 182.515625 439.734375 184.65625 447.097656 C 188.339844 459.769531 195.003906 470.667969 204.554688 479.777344 C 206.949219 482.0625 210.148438 482.359375 213.171875 482.617188 C 223.621094 483.503906 233.929688 482.746094 243.054688 477.0625 C 248.070312 473.941406 250.945312 468.890625 250.695312 462.765625 C 250.519531 458.433594 250.457031 454.109375 250.4375 449.78125 C 250.363281 434.613281 250.34375 419.449219 250.285156 404.285156 C 250.136719 364.050781 250.214844 323.8125 249.765625 283.578125 C 249.289062 241.085938 249.589844 198.597656 249.371094 156.105469 C 249.351562 152.035156 249.347656 152.125 245.375 152.246094 C 226.050781 152.824219 206.71875 152.417969 187.390625 152.621094 C 185.308594 152.640625 183.226562 152.648438 181.140625 152.640625 C 177.160156 152.625 174.492188 150.996094 173.285156 147.679688 C 172.078125 144.375 173.28125 141.691406 175.667969 139.351562 C 189.292969 126 202.941406 112.667969 216.515625 99.261719 C 227.421875 88.492188 238.25 77.640625 248.398438 66.140625 C 249.605469 64.769531 250.625 63.230469 251.6875 61.738281 C 255.171875 56.84375 260.632812 56.199219 264.992188 60.273438 C 279.589844 73.933594 294.160156 87.621094 308.746094 101.292969 C 321.566406 113.316406 334.394531 125.332031 347.21875 137.351562 C 347.765625 137.863281 348.289062 138.398438 348.835938 138.914062 C 350.96875 140.933594 351.777344 143.386719 350.8125 146.175781 C 349.832031 149 347.664062 150.667969 344.738281 151.128906 C 342.773438 151.4375 340.761719 151.535156 338.769531 151.554688 C 315.277344 151.742188 291.785156 151.894531 268.289062 152.0625 C 265.019531 152.085938 264.96875 152.132812 264.976562 155.453125 C 265.0625 207.695312 264.894531 259.9375 265.320312 312.175781 C 265.683594 356.582031 265.476562 400.984375 265.792969 445.390625 C 265.839844 451.878906 265.851562 458.375 266.039062 464.863281 C 266.160156 469.125 266.839844 473.40625 269.085938 477.066406 C 272.136719 482.042969 277.210938 484.042969 282.726562 484.828125 C 297.367188 486.921875 309.882812 482.234375 320.960938 472.789062 C 332.0625 463.320312 337.710938 450.90625 340.878906 437.042969 C 343.085938 427.390625 343.46875 417.566406 343.214844 407.769531 C 343.035156 400.835938 343.273438 393.777344 340.964844 387.003906 C 340.199219 384.761719 339.210938 382.734375 337.847656 380.8125 C 335.222656 377.101562 335.617188 373.550781 338.824219 370.863281 C 342.070312 368.136719 346.117188 368.21875 349.210938 371.238281 C 353.945312 375.855469 355.960938 381.78125 357.179688 388.097656 C 359.4375 399.816406 359.183594 411.675781 358.464844 423.4375 C 357.335938 441.945312 352.34375 459.355469 340.550781 474.175781 C 332.726562 484.007812 323.015625 491.410156 311.125 495.78125 C 310.820312 495.894531 310.546875 496.101562 310.128906 496.382812 C 296.824219 496.5 283.644531 496.5 270.109375 496.382812 C 265.132812 493.917969 260.691406 491.324219 257.488281 487.09375 C 256.492188 485.78125 255.679688 486.472656 254.78125 487.164062 C 251.132812 489.972656 247.070312 491.972656 242.765625 493.609375 C 239.410156 494.882812 235.914062 495.519531 232.5 496.5 C 223.988281 496.5 215.480469 496.5 206.734375 496.5 M 242.851562 94.101562 C 228.617188 108.742188 214.074219 123.078125 199.503906 137.519531 C 241.160156 137.957031 282.644531 137.304688 324.363281 136.449219 C 302.902344 116.347656 281.441406 96.246094 259.863281 76.035156 C 254.015625 82.195312 248.886719 88.335938 242.851562 94.101562 Z M 242.851562 94.101562 "/>
</g>
</svg>
