<?xml version="1.0" encoding="UTF-8"?>
<svg xmlns="http://www.w3.org/2000/svg" xmlns:xlink="http://www.w3.org/1999/xlink" width="50px" height="50px" viewBox="0 0 496 496" version="1.1">
<g id="surface1">
<path style=" stroke:none;fill-rule:nonzero;fill:rgb(0%,0%,0%);fill-opacity:1;" d="M 220.234375 496.5 C 219.398438 494.570312 219.316406 492.59375 219.320312 490.582031 C 219.347656 471.09375 219.339844 451.609375 219.34375 432.121094 C 219.34375 431.289062 219.316406 430.457031 219.367188 429.625 C 219.59375 425.742188 222.367188 422.90625 226 422.816406 C 229.722656 422.722656 232.773438 425.554688 233.113281 429.449219 C 233.175781 430.191406 233.144531 430.945312 233.144531 431.695312 C 233.148438 451.597656 233.144531 471.5 233.164062 491.402344 C 233.167969 493 233.039062 494.558594 232.539062 496.292969 C 228.488281 496.5 224.480469 496.5 220.234375 496.5 Z M 220.234375 496.5 "/>
<path style=" stroke:none;fill-rule:nonzero;fill:rgb(0%,0%,0%);fill-opacity:1;" d="M 273.726562 496.5 C 270.078125 494.238281 269.242188 491.007812 269.273438 487.035156 C 269.414062 468.550781 269.34375 450.066406 269.320312 431.582031 C 269.316406 429.238281 269.738281 427.082031 271.539062 425.453125 C 273.554688 423.632812 275.933594 423.117188 278.503906 424.03125 C 281.3125 425.035156 282.613281 427.277344 283.085938 430.074219 C 283.195312 430.726562 283.140625 431.40625 283.140625 432.070312 C 283.144531 450.804688 283.117188 469.539062 283.167969 488.273438 C 283.179688 491.84375 282.023438 494.601562 278.625 496.386719 C 276.984375 496.5 275.46875 496.5 273.726562 496.5 Z M 273.726562 496.5 "/>
<path style=" stroke:none;fill-rule:nonzero;fill:rgb(0%,0%,0%);fill-opacity:1;" d="M 235.722656 343.632812 C 235.554688 343.320312 235.421875 343.171875 235.417969 343.019531 C 235.167969 336.78125 230.4375 333.527344 226.539062 329.757812 C 217.875 321.375 207.746094 315.742188 195.730469 313.910156 C 187.722656 312.6875 180.3125 314.574219 173.648438 319.078125 C 162.105469 326.882812 155.988281 337.996094 154.175781 351.660156 C 153.878906 353.910156 154.699219 355.261719 156.683594 356.496094 C 175.359375 368.105469 193.972656 379.808594 212.574219 391.539062 C 215.445312 393.351562 217.210938 395.988281 216.53125 399.535156 C 215.832031 403.183594 213.160156 404.816406 209.714844 405.601562 C 196.742188 408.554688 183.78125 411.550781 170.828125 414.585938 C 146.699219 420.246094 122.582031 425.949219 98.457031 431.628906 C 84.695312 434.871094 70.9375 438.113281 57.171875 441.332031 C 52.640625 442.390625 49.199219 440.425781 48.078125 436.242188 C 47.117188 432.652344 49.398438 428.964844 53.671875 427.847656 C 59.78125 426.25 65.96875 424.953125 72.117188 423.5 C 93.8125 418.386719 115.5 413.246094 137.199219 408.140625 C 154.761719 404.007812 172.332031 399.914062 189.898438 395.804688 C 190.457031 395.675781 191.039062 395.601562 191.542969 394.867188 C 188.910156 393.160156 186.308594 391.425781 183.660156 389.761719 C 167.445312 379.5625 151.210938 369.386719 134.996094 359.1875 C 114.191406 346.105469 93.402344 333.007812 72.601562 319.921875 C 67.035156 316.417969 61.429688 312.96875 55.890625 309.414062 C 51.246094 306.429688 50.542969 301.285156 54.195312 297.773438 C 56.542969 295.511719 59.617188 295.273438 62.675781 297.195312 C 75.582031 305.304688 88.480469 313.433594 101.378906 321.554688 C 113.785156 329.367188 126.1875 337.183594 138.597656 344.984375 C 139.277344 345.414062 139.890625 346.066406 141.070312 345.914062 C 142.09375 340.960938 143.476562 336.039062 145.71875 331.378906 C 152.191406 317.925781 161.867188 307.796875 175.941406 302.335938 C 186.738281 298.144531 197.511719 298.820312 208.382812 302.558594 C 220.933594 306.875 231.261719 314.332031 240.265625 323.84375 C 241.726562 325.386719 242.636719 325.296875 244.03125 323.769531 C 247.964844 319.46875 251.902344 315.152344 256.105469 311.117188 C 262.574219 304.902344 269.558594 299.414062 278.539062 297.148438 C 282.921875 296.042969 287.398438 295.644531 291.558594 297.375 C 306.601562 303.636719 320.636719 311.449219 331.027344 324.539062 C 336.664062 331.640625 339.765625 339.777344 341.152344 348.652344 C 341.214844 349.054688 341.3125 349.453125 341.414062 349.851562 C 341.429688 349.910156 341.539062 349.949219 341.632812 350.019531 C 342.453125 350.179688 343.003906 349.578125 343.601562 349.183594 C 367.640625 333.136719 391.671875 317.074219 415.710938 301.019531 C 417.648438 299.722656 419.601562 298.445312 421.578125 297.207031 C 425.335938 294.855469 429.105469 295.59375 431.34375 299.078125 C 433.59375 302.582031 432.683594 306.53125 428.949219 309.039062 C 423.070312 312.984375 417.144531 316.859375 411.25 320.789062 C 375.273438 344.761719 339.296875 368.742188 303.328125 392.734375 C 302.65625 393.179688 301.828125 393.488281 301.40625 394.476562 C 302.683594 395.464844 304.296875 395.601562 305.757812 396.066406 C 322.730469 401.453125 339.707031 406.839844 356.699219 412.167969 C 372.023438 416.976562 387.375 421.679688 402.699219 426.488281 C 411.195312 429.15625 419.660156 431.914062 428.121094 434.699219 C 432.230469 436.050781 434.464844 439.730469 433.359375 443.054688 C 431.925781 447.347656 428.355469 449.222656 423.886719 447.828125 C 404.902344 441.90625 385.933594 435.941406 366.964844 429.972656 C 343.789062 422.679688 320.617188 415.371094 297.441406 408.074219 C 293.710938 406.902344 289.972656 405.757812 286.230469 404.628906 C 285.023438 404.265625 283.890625 403.773438 282.824219 403.101562 C 276.898438 399.378906 276.847656 393.675781 282.699219 389.78125 C 297.121094 380.179688 311.496094 370.503906 326.007812 361.042969 C 328.308594 359.542969 327.960938 357.875 327.933594 355.796875 C 327.804688 346.328125 324.691406 338.03125 318.453125 330.917969 C 314.402344 326.296875 309.546875 322.640625 304.308594 319.507812 C 299.953125 316.902344 295.5 314.441406 291.023438 312.050781 C 286.652344 309.714844 282.199219 309.980469 277.835938 312.160156 C 273.015625 314.570312 268.820312 317.871094 265.078125 321.6875 C 260.644531 326.203125 256.394531 330.898438 252.097656 335.542969 C 250.253906 337.53125 249.261719 340.011719 248.179688 342.460938 C 245.558594 348.394531 239.726562 348.996094 235.722656 343.632812 Z M 235.722656 343.632812 "/>
</g>
</svg>
