<?xml version="1.0" encoding="UTF-8"?>
<svg xmlns="http://www.w3.org/2000/svg" xmlns:xlink="http://www.w3.org/1999/xlink" width="50px" height="50px" viewBox="0 0 496 496" version="1.1">
<g id="surface1">
<path style=" stroke:none;fill-rule:nonzero;fill:rgb(0%,0%,0%);fill-opacity:1;" d="M 229.734375 496.5 C 224.996094 494.136719 220.144531 492.617188 215.449219 490.71875 C 181.183594 476.851562 146.890625 463.042969 112.597656 449.230469 C 96.839844 442.886719 81.058594 436.605469 65.308594 430.238281 C 60.402344 428.253906 58.707031 423.675781 61.195312 419.558594 C 62.699219 417.070312 65.042969 416.328125 67.800781 416.332031 C 83.632812 416.339844 99.46875 416.492188 115.296875 416.273438 C 153.535156 415.75 191.777344 415.890625 230.019531 415.824219 C 233.367188 415.816406 233.382812 415.804688 233.378906 412.28125 C 233.335938 384.367188 233.464844 356.453125 233.199219 328.539062 C 232.671875 273.464844 233.042969 218.386719 232.90625 163.308594 C 232.898438 160.964844 232.136719 160.160156 230.007812 159.695312 C 207.503906 154.769531 191.730469 133.640625 194.046875 110.664062 C 195.863281 92.632812 207.742188 76.996094 225.953125 71.277344 C 245.292969 65.199219 265.882812 72.207031 277.0625 88.320312 C 287.304688 103.078125 288.921875 118.960938 280.722656 135.316406 C 273.882812 148.953125 262.730469 157.054688 247.871094 160.09375 C 246.359375 160.402344 246.179688 161.160156 246.203125 162.3125 C 246.273438 165.726562 246.4375 169.140625 246.441406 172.550781 C 246.539062 245.546875 246.609375 318.542969 246.714844 391.539062 C 246.726562 398.871094 246.964844 406.199219 246.988281 413.527344 C 246.996094 415.320312 247.644531 415.796875 249.34375 415.757812 C 272 415.207031 294.664062 415.394531 317.324219 415.402344 C 320.40625 415.402344 320.230469 413.527344 320.257812 411.683594 C 320.355469 404.433594 320.339844 397.183594 320.367188 389.933594 C 320.371094 389.019531 320.34375 388.101562 320.390625 387.183594 C 320.589844 383.25 323.800781 379.882812 327.289062 379.929688 C 330.683594 379.972656 333.957031 383.210938 334.03125 387.0625 C 334.136719 392.390625 333.941406 397.722656 333.855469 403.054688 C 333.800781 406.46875 333.753906 409.882812 333.632812 413.292969 C 333.578125 414.824219 334.230469 415.339844 335.710938 415.332031 C 342.710938 415.292969 349.710938 415.265625 356.710938 415.347656 C 358.613281 415.367188 358.867188 414.445312 358.867188 412.875 C 358.851562 403.875 358.855469 394.875 358.9375 385.878906 C 359.003906 378.632812 359.171875 371.386719 359.328125 364.140625 C 359.410156 360.277344 362.234375 357.386719 365.878906 357.335938 C 369.601562 357.285156 372.585938 360.25 372.613281 364.25 C 372.660156 372 372.597656 379.75 372.582031 387.5 C 372.5625 395.664062 372.535156 403.832031 372.535156 411.996094 C 372.535156 412.976562 372.3125 414 372.914062 415 C 376.699219 415 380.511719 415.007812 384.328125 415 C 406.574219 414.941406 428.824219 414.890625 451.074219 414.796875 C 453.625 414.785156 455.917969 415.277344 457.511719 417.398438 C 459.125 419.542969 459.574219 421.917969 458.394531 424.449219 C 457.246094 426.921875 455.308594 428.335938 452.597656 428.605469 C 451.609375 428.703125 450.601562 428.652344 449.601562 428.652344 C 430.105469 428.703125 410.605469 428.742188 391.109375 428.808594 C 385.777344 428.828125 380.445312 429.046875 375.121094 428.960938 C 372.789062 428.925781 372.121094 429.757812 372.125 432 C 372.160156 446.496094 372.066406 460.996094 372.0625 475.496094 C 372.0625 479.0625 370.820312 481.890625 367.515625 483.441406 C 363.488281 485.335938 358.835938 482.085938 358.394531 477.152344 C 358.292969 475.996094 358.347656 474.820312 358.359375 473.65625 C 358.511719 459.828125 358.625 445.996094 358.875 432.167969 C 358.917969 429.769531 358.210938 428.996094 355.78125 429.058594 C 349.289062 429.222656 342.785156 429.203125 336.285156 429.101562 C 334.203125 429.070312 333.578125 429.777344 333.5625 431.824219 C 333.515625 439.820312 333.308594 447.816406 333.160156 455.808594 C 333.078125 460.144531 330.257812 463.28125 326.394531 463.324219 C 322.699219 463.371094 319.8125 460.046875 319.820312 455.71875 C 319.828125 447.804688 319.785156 439.886719 319.914062 431.972656 C 319.949219 429.792969 319.296875 429.097656 317.082031 429.117188 C 294.757812 429.308594 272.433594 429.433594 250.105469 429.472656 C 247.664062 429.476562 247.015625 430.296875 247.03125 432.660156 C 247.136719 451.992188 247.117188 471.324219 247.167969 490.65625 C 247.171875 492.5 247.085938 494.308594 246.523438 496.289062 C 240.988281 496.5 235.480469 496.5 229.734375 496.5 M 170.53125 457.683594 C 191.332031 466.082031 212.132812 474.480469 232.898438 482.863281 C 233.589844 481.574219 233.414062 480.636719 233.414062 479.738281 C 233.417969 464.070312 233.410156 448.40625 233.402344 432.742188 C 233.398438 429.597656 233.390625 429.597656 230.148438 429.601562 C 188.828125 429.652344 147.503906 429.671875 106.179688 430.109375 C 105.277344 430.121094 104.375 430.109375 103.46875 430.109375 C 103.457031 430.320312 103.449219 430.527344 103.4375 430.734375 C 125.683594 439.664062 147.929688 448.597656 170.53125 457.683594 M 261.976562 138.230469 C 270.160156 130.398438 273.554688 120.734375 271.703125 109.691406 C 268.765625 92.15625 253.019531 80.863281 234.933594 83.320312 C 219.65625 85.398438 207.792969 98.554688 207.464844 114.175781 C 207.136719 129.691406 217.601562 142.902344 232.933594 146.214844 C 243.65625 148.527344 253.398438 145.796875 261.976562 138.230469 Z M 261.976562 138.230469 "/>
</g>
</svg>
