<?xml version="1.0" encoding="UTF-8"?>
<svg xmlns="http://www.w3.org/2000/svg" xmlns:xlink="http://www.w3.org/1999/xlink" width="50px" height="50px" viewBox="0 0 496 496" version="1.1">
<g id="surface1">
<path style=" stroke:none;fill-rule:nonzero;fill:rgb(0%,0%,0%);fill-opacity:1;" d="M 245.722656 496.5 C 241.699219 494.851562 240.484375 491.792969 240.480469 487.851562 C 240.46875 455.289062 240.390625 422.730469 240.34375 390.167969 C 240.339844 385.566406 243.078125 382.394531 246.988281 382.363281 C 250.917969 382.335938 253.933594 385.675781 253.925781 390.269531 C 253.917969 400.84375 253.753906 411.417969 253.777344 421.992188 C 253.828125 444.054688 253.921875 466.121094 254.097656 488.183594 C 254.125 491.808594 252.835938 494.457031 249.621094 496.382812 C 248.316406 496.5 247.128906 496.5 245.722656 496.5 Z M 245.722656 496.5 "/>
<path style=" stroke:none;fill-rule:nonzero;fill:rgb(0%,0%,0%);fill-opacity:1;" d="M 228.394531 334.570312 C 232.945312 337.054688 237.355469 339.402344 241.703125 341.867188 C 243.003906 342.605469 244.035156 342.703125 245.382812 341.941406 C 259.089844 334.207031 272.832031 326.523438 286.570312 318.835938 C 306.558594 307.644531 326.558594 296.480469 346.535156 285.269531 C 366.21875 274.21875 385.871094 263.113281 405.550781 252.058594 C 419.425781 244.265625 433.3125 236.503906 447.210938 228.761719 C 451.097656 226.597656 454.8125 227.847656 456.769531 231.867188 C 457.820312 234.023438 458.019531 236.320312 458.023438 238.683594 C 458.066406 272.347656 457.890625 306.015625 458.246094 339.679688 C 458.679688 380.507812 458.414062 421.339844 458.617188 462.167969 C 458.621094 463.660156 458.699219 465.210938 458.355469 466.640625 C 457.226562 471.3125 452.726562 473.394531 448.425781 471.085938 C 438.59375 465.808594 428.851562 460.359375 419.066406 454.992188 C 380.648438 433.917969 342.226562 412.859375 303.816406 391.773438 C 284.464844 381.15625 265.128906 370.507812 245.816406 359.824219 C 244.347656 359.011719 243.21875 358.917969 241.695312 359.773438 C 204.316406 380.820312 166.917969 401.828125 129.507812 422.8125 C 102.84375 437.769531 76.160156 452.683594 49.492188 467.621094 C 47.890625 468.515625 46.339844 469.496094 44.726562 470.363281 C 39.011719 473.4375 32.835938 469.792969 32.839844 463.285156 C 32.851562 447.285156 32.679688 431.28125 33.027344 415.289062 C 33.894531 375.464844 33.078125 335.632812 33.59375 295.8125 C 33.828125 277.5625 33.765625 259.316406 33.875 241.070312 C 33.921875 233.800781 39.128906 230.699219 45.53125 234.203125 C 60.660156 242.480469 75.761719 250.800781 90.871094 259.109375 C 106.636719 267.78125 122.382812 276.484375 138.160156 285.136719 C 160.359375 297.3125 182.582031 309.460938 204.789062 321.621094 C 212.609375 325.902344 220.421875 330.191406 228.394531 334.570312 M 114.808594 287.945312 C 92.4375 275.6875 70.070312 263.429688 47.070312 250.832031 C 47.609375 318.691406 46.492188 385.765625 46.671875 453.398438 C 107.792969 419.109375 168.382812 385.121094 229.226562 350.988281 C 228.332031 350.429688 227.792969 350.058594 227.222656 349.746094 C 203.800781 336.859375 180.375 323.976562 156.949219 311.101562 C 143.011719 303.441406 129.066406 295.789062 114.808594 287.945312 M 444.828125 346.75 C 444.648438 313.484375 444.46875 280.214844 444.285156 246.246094 C 381.910156 281.222656 320.15625 315.855469 257.890625 350.773438 C 320.402344 385.085938 382.402344 419.113281 444.828125 453.375 C 444.828125 417.648438 444.828125 382.449219 444.828125 346.75 Z M 444.828125 346.75 "/>
<path style=" stroke:none;fill-rule:nonzero;fill:rgb(0%,0%,0%);fill-opacity:1;" d="M 270.460938 305.46875 C 261.300781 313.308594 250.785156 316.679688 238.992188 316.261719 C 223.902344 315.726562 212.363281 308.722656 202.972656 297.183594 C 189.585938 280.738281 188.707031 253.949219 200.324219 236.550781 C 208.652344 224.074219 219.890625 215.808594 234.964844 214.019531 C 248.164062 212.457031 260.175781 215.851562 270.519531 224.625 C 280.105469 232.757812 286.367188 242.859375 288.449219 255.210938 C 291.101562 270.949219 288.027344 285.445312 277.800781 298.113281 C 275.636719 300.792969 273.234375 303.175781 270.460938 305.46875 M 267.824219 288.585938 C 281.609375 271.554688 277.046875 244.292969 258.46875 232.703125 C 242.355469 222.648438 221.140625 228.074219 211.152344 244.804688 C 202.339844 259.5625 204.125 278.402344 215.703125 291.207031 C 221.070312 297.140625 227.800781 301.046875 235.734375 302.042969 C 248.71875 303.671875 259.421875 299.164062 267.824219 288.585938 Z M 267.824219 288.585938 "/>
<path style=" stroke:none;fill-rule:nonzero;fill:rgb(0%,0%,0%);fill-opacity:1;" d="M 366.453125 341.929688 C 381.09375 329.925781 401.027344 338.515625 404.3125 355.089844 C 407.269531 370.015625 396.839844 381.738281 384.425781 383.1875 C 371.699219 384.675781 363.644531 376.996094 360.265625 369.621094 C 355.964844 360.238281 358.394531 349.316406 366.453125 341.929688 Z M 366.453125 341.929688 "/>
</g>
</svg>
