<?xml version="1.0" encoding="UTF-8"?>
<svg xmlns="http://www.w3.org/2000/svg" xmlns:xlink="http://www.w3.org/1999/xlink" width="50px" height="50px" viewBox="0 0 496 496" version="1.1">
<g id="surface1">
<path style=" stroke:none;fill-rule:nonzero;fill:rgb(0%,0%,0%);fill-opacity:1;" d="M 69.234375 496.5 C 67.714844 494.175781 67.417969 491.699219 67.417969 489.050781 C 67.46875 384.226562 67.402344 279.40625 67.542969 174.582031 C 67.5625 159.015625 67.265625 143.453125 67.28125 127.886719 C 67.285156 123.964844 70.273438 120.675781 74.191406 120.363281 C 78.757812 120 82.050781 122.371094 82.726562 126.542969 C 82.882812 127.523438 82.980469 128.523438 83.003906 129.519531 C 83.375 143.84375 83.496094 158.183594 83.367188 172.496094 C 82.972656 216.652344 83.359375 260.804688 83.179688 304.960938 C 83.167969 308.445312 83.179688 308.421875 86.800781 308.480469 C 123.457031 309.070312 160.113281 308.960938 196.773438 309.066406 C 200.101562 309.078125 203.433594 309.171875 206.761719 309.28125 C 208.050781 309.324219 208.925781 308.839844 209.703125 307.796875 C 217.71875 297.027344 226.355469 286.757812 235.714844 277.152344 C 244.3125 268.328125 253.25 259.84375 262.683594 251.871094 C 277.609375 239.253906 293.453125 227.933594 310.214844 217.945312 C 329.433594 206.488281 349.6875 197.195312 370.84375 189.832031 C 379.011719 186.988281 386.957031 183.507812 395.066406 180.488281 C 401.066406 178.253906 407.109375 175.992188 413.636719 175.964844 C 418.289062 175.949219 421.574219 179.546875 421.246094 183.992188 C 420.996094 187.339844 418.367188 190.105469 414.410156 190.496094 C 408.601562 191.070312 403.199219 193.035156 397.902344 195.171875 C 386.011719 199.972656 373.957031 204.335938 361.992188 208.9375 C 352.042969 212.765625 342.382812 217.273438 332.960938 222.261719 C 319.84375 229.207031 307.1875 236.90625 295.125 245.566406 C 280.414062 256.121094 266.582031 267.707031 253.714844 280.464844 C 245.1875 288.917969 237.113281 297.757812 229.585938 307.101562 C 229.175781 307.613281 228.796875 308.152344 228.054688 309.148438 C 229.691406 309.234375 230.953125 309.351562 232.214844 309.359375 C 240.882812 309.40625 249.546875 309.453125 258.210938 309.445312 C 259.53125 309.445312 260.851562 309.167969 262.171875 308.996094 C 267.050781 308.371094 271.101562 311.855469 271.09375 316.773438 C 271.054688 341.433594 271.066406 366.097656 270.921875 390.761719 C 270.746094 420.828125 270.429688 450.890625 270.1875 480.957031 C 270.152344 484.9375 270.175781 484.941406 274.058594 484.941406 C 323.722656 484.9375 373.382812 484.929688 423.042969 484.925781 C 423.460938 484.925781 423.878906 484.941406 424.292969 484.921875 C 429.703125 484.695312 435.300781 489.382812 432.050781 496.3125 C 311.15625 496.5 190.3125 496.5 69.234375 496.5 M 206.039062 340.253906 C 204.925781 342.207031 203.851562 344.183594 202.691406 346.105469 C 192.917969 362.289062 185.3125 379.480469 179.78125 397.511719 C 174.15625 415.847656 170.515625 434.585938 170.558594 453.890625 C 170.5625 455.628906 170.4375 457.410156 170.066406 459.101562 C 169.273438 462.683594 165.332031 465.296875 161.734375 464.816406 C 157.570312 464.257812 154.925781 461.285156 154.796875 457.28125 C 154.433594 446.007812 155.710938 434.835938 157.558594 423.78125 C 160.179688 408.097656 164.550781 392.859375 170.222656 377.960938 C 176.925781 360.363281 185.800781 343.933594 195.664062 327.976562 C 196.46875 326.671875 197.34375 325.40625 198.351562 323.871094 C 197.300781 323.800781 196.652344 323.726562 196.003906 323.722656 C 159.355469 323.542969 122.710938 323.382812 86.0625 323.148438 C 83.707031 323.132812 83.125 323.953125 83.128906 326.191406 C 83.183594 378.179688 83.1875 430.167969 83.132812 482.15625 C 83.128906 484.394531 83.855469 485.011719 86 484.988281 C 94.164062 484.890625 102.328125 484.945312 110.496094 484.941406 C 157.316406 484.941406 204.140625 484.9375 250.964844 484.941406 C 252.828125 484.941406 254.5 485.234375 254.519531 482.273438 C 254.695312 454.617188 255.050781 426.964844 255.269531 399.3125 C 255.378906 385.734375 255.304688 372.152344 255.335938 358.570312 C 255.355469 347.992188 255.375 337.410156 255.484375 326.832031 C 255.503906 324.824219 254.886719 324.011719 252.792969 324.019531 C 241.546875 324.050781 230.300781 323.992188 219.054688 323.9375 C 217.636719 323.929688 216.480469 324.203125 215.636719 325.507812 C 212.519531 330.332031 209.34375 335.121094 206.039062 340.253906 Z M 206.039062 340.253906 "/>
<path style=" stroke:none;fill-rule:nonzero;fill:rgb(0%,0%,0%);fill-opacity:1;" d="M 144.546875 273.113281 C 137.445312 271.253906 131.355469 268.144531 126.472656 262.742188 C 116.917969 252.175781 116.167969 236.191406 124.867188 224.882812 C 139.210938 206.234375 168.367188 207.996094 180.335938 228.230469 C 187.679688 240.648438 184.203125 257.585938 172.707031 266.347656 C 164.332031 272.730469 155.0625 274.945312 144.546875 273.113281 M 168.421875 243.226562 C 168.324219 241.65625 168.46875 240.082031 168.035156 238.519531 C 165.960938 231.066406 159.003906 226.277344 150.207031 226.6875 C 140.164062 227.15625 131.390625 236.347656 135.449219 248.441406 C 137.457031 254.417969 143.664062 259.664062 153.4375 258.964844 C 161.09375 258.414062 168.933594 250.972656 168.421875 243.226562 Z M 168.421875 243.226562 "/>
</g>
</svg>
