<?xml version="1.0" encoding="UTF-8"?>
<svg xmlns="http://www.w3.org/2000/svg" xmlns:xlink="http://www.w3.org/1999/xlink" width="50px" height="50px" viewBox="0 0 496 496" version="1.1">
<g id="surface1">
<path style=" stroke:none;fill-rule:nonzero;fill:rgb(0%,0%,0%);fill-opacity:1;" d="M 245.234375 496.5 C 239.226562 495.765625 233.398438 495.621094 227.632812 494.75 C 213.824219 492.667969 200.414062 489.140625 187.453125 483.957031 C 160.738281 473.269531 137.980469 456.984375 119.0625 435.324219 C 115.246094 430.953125 115.183594 430.863281 110.84375 434.730469 C 97.226562 446.867188 83.675781 459.074219 70.085938 471.242188 C 62.394531 478.132812 54.699219 485.023438 46.960938 491.859375 C 43.675781 494.761719 40.070312 494.621094 37.449219 491.652344 C 35.007812 488.882812 35.246094 485.121094 38.316406 482.34375 C 48.574219 473.070312 58.894531 463.867188 69.214844 454.664062 C 81.519531 443.683594 93.839844 432.714844 106.199219 421.796875 C 107.371094 420.761719 107.292969 419.992188 106.515625 418.855469 C 100.054688 409.394531 94.707031 399.328125 90.367188 388.738281 C 85.328125 376.449219 81.878906 363.730469 79.734375 350.605469 C 77.65625 337.859375 77.296875 325.054688 78.085938 312.25 C 78.957031 298.167969 81.878906 284.402344 86.398438 271.015625 C 93.046875 251.3125 103.070312 233.457031 116.128906 217.300781 C 118.371094 214.527344 120.796875 211.898438 123.222656 209.105469 C 117.183594 202.402344 111.242188 195.785156 105.28125 189.183594 C 79.929688 161.117188 54.578125 133.046875 29.210938 104.996094 C 27.210938 102.785156 25.453125 100.363281 26.992188 97.398438 C 28.648438 94.203125 30.890625 91.316406 34.976562 90.972656 C 36.054688 90.882812 37.144531 90.925781 38.226562 90.914062 C 53.71875 90.714844 69.214844 90.679688 84.703125 90.285156 C 111.023438 89.617188 137.351562 89.625 163.671875 89.238281 C 182.242188 88.96875 200.8125 88.628906 219.382812 88.257812 C 234.210938 87.957031 249.042969 88.125 263.867188 87.800781 C 284.355469 87.351562 304.84375 87.128906 325.332031 86.738281 C 339.328125 86.472656 353.324219 86.613281 367.316406 86.304688 C 387.550781 85.855469 407.792969 85.582031 428.03125 85.226562 C 437.527344 85.058594 447.023438 85.152344 456.515625 84.875 C 459.695312 84.78125 461.996094 86.160156 463.316406 89.015625 C 464.605469 91.800781 463.667969 94.160156 461.703125 96.308594 C 451.816406 107.132812 441.960938 117.984375 432.082031 128.816406 C 416.988281 145.371094 401.886719 161.925781 386.78125 178.472656 C 382.34375 183.332031 377.878906 188.164062 373.433594 193.019531 C 372.824219 193.683594 372.03125 194.210938 371.703125 195.242188 C 372.410156 196.550781 373.707031 197.363281 374.789062 198.351562 C 398.121094 219.695312 414.660156 245.351562 423.863281 275.65625 C 428.019531 289.339844 430.136719 303.3125 430.777344 317.632812 C 431.988281 344.636719 426.710938 370.25 415.589844 394.757812 C 411.765625 403.191406 407.269531 411.277344 401.976562 418.882812 C 400.800781 420.570312 401.019531 421.4375 402.425781 422.785156 C 422.449219 441.988281 442.414062 461.253906 462.402344 480.496094 C 464.597656 482.605469 466.410156 484.84375 465.167969 488.160156 C 463.4375 492.769531 458.296875 494.066406 454.664062 490.632812 C 446.128906 482.5625 437.707031 474.371094 429.238281 466.230469 C 417.703125 455.144531 406.167969 444.0625 394.628906 432.984375 C 394.15625 432.53125 393.625 432.140625 393.039062 431.652344 C 390.621094 433.230469 389.199219 435.644531 387.382812 437.648438 C 366.878906 460.265625 342.261719 476.621094 313.441406 486.730469 C 300.960938 491.105469 288.128906 493.785156 275.070312 495.523438 C 271.695312 495.972656 268.273438 496.085938 264.6875 496.425781 C 258.15625 496.5 251.8125 496.5 245.234375 496.5 M 205.738281 158.90625 C 261.972656 144.339844 313.882812 153.828125 361.488281 187.09375 C 388.585938 157.421875 415.574219 127.867188 442.636719 98.234375 C 442.167969 97.992188 442.03125 97.859375 441.902344 97.867188 C 430.75 98.40625 419.585938 98.144531 408.425781 98.480469 C 392.859375 98.945312 377.277344 98.898438 361.703125 99.09375 C 352.792969 99.203125 343.882812 99.359375 334.976562 99.496094 C 311.988281 99.847656 289 100.214844 266.011719 100.542969 C 254.1875 100.714844 242.359375 100.667969 230.535156 100.949219 C 210.050781 101.429688 189.5625 101.796875 169.070312 101.976562 C 144.25 102.195312 119.433594 102.449219 94.617188 103.03125 C 79.378906 103.386719 64.132812 103.429688 48.890625 103.636719 C 47.941406 103.648438 46.902344 103.34375 45.761719 104.273438 C 74.570312 136.164062 103.335938 168 132.285156 200.042969 C 153.621094 180.46875 177.890625 166.875 205.738281 158.90625 M 95.871094 368.890625 C 97.085938 372.34375 98.253906 375.8125 99.515625 379.246094 C 109.191406 405.5625 124.824219 427.816406 146.269531 445.746094 C 182.160156 475.753906 223.730469 488.292969 270.230469 484.324219 C 289.722656 482.660156 308.394531 477.5625 326.0625 469.042969 C 362.015625 451.707031 388.5625 425.0625 405.300781 388.753906 C 412.875 372.328125 417.1875 354.976562 418.632812 337.046875 C 419.441406 326.960938 419.320312 316.773438 418.078125 306.621094 C 415.90625 288.855469 411.214844 271.886719 403.394531 255.785156 C 389.746094 227.683594 369.515625 205.453125 343.054688 189.007812 C 316.273438 172.367188 287.039062 164.007812 255.417969 163.894531 C 240.996094 163.839844 226.8125 165.378906 212.894531 168.972656 C 179.273438 177.660156 150.921875 195.035156 128.160156 221.324219 C 114.8125 236.734375 104.824219 254.128906 98.203125 273.421875 C 93.585938 286.871094 90.988281 300.710938 90 314.914062 C 89.289062 325.1875 89.964844 335.351562 91.0625 345.535156 C 91.90625 353.339844 94.132812 360.859375 95.871094 368.890625 Z M 95.871094 368.890625 "/>
<path style=" stroke:none;fill-rule:nonzero;fill:rgb(0%,0%,0%);fill-opacity:1;" d="M 32.625 436.917969 C 23.863281 429.832031 19.769531 420.863281 20.308594 409.726562 C 20.9375 396.75 30.988281 384.738281 43.757812 381.925781 C 61.324219 378.0625 78.636719 390.230469 80.554688 408.125 C 81.933594 421.011719 77.171875 431.527344 66.097656 438.320312 C 54.960938 445.148438 43.613281 444.285156 32.625 436.917969 M 56.597656 428.882812 C 64.410156 425.480469 68.132812 419.386719 67.84375 410.46875 C 67.503906 400 56.925781 391.949219 46.738281 394.410156 C 37.050781 396.753906 30.976562 406.785156 33.5 416.273438 C 36.324219 426.867188 45.757812 432.15625 56.597656 428.882812 Z M 56.597656 428.882812 "/>
<path style=" stroke:none;fill-rule:nonzero;fill:rgb(0%,0%,0%);fill-opacity:1;" d="M 111.902344 329.484375 C 111.585938 310.1875 114.945312 291.761719 122.066406 274.132812 C 127.714844 260.144531 135.554688 247.40625 145.441406 235.941406 C 155.886719 223.832031 168 213.753906 181.839844 205.8125 C 197.820312 196.636719 214.980469 190.8125 233.269531 188.292969 C 257.742188 184.917969 281.5 187.921875 304.316406 197.0625 C 332.175781 208.222656 354.351562 226.542969 370.59375 251.90625 C 382.019531 269.75 388.820312 289.273438 391.34375 310.226562 C 392.820312 322.496094 392.515625 334.808594 390.542969 347.078125 C 388.25 361.34375 383.925781 374.933594 377.421875 387.789062 C 369.441406 403.558594 358.792969 417.335938 345.574219 429.105469 C 331.648438 441.503906 315.851562 450.742188 298.289062 456.910156 C 281.277344 462.882812 263.6875 465.359375 245.707031 464.550781 C 226.34375 463.679688 207.859375 459.003906 190.4375 450.46875 C 166.039062 438.515625 146.660156 420.960938 132.355469 397.828125 C 124.308594 384.816406 118.609375 370.820312 115.277344 355.921875 C 113.355469 347.324219 112.101562 338.582031 111.902344 329.484375 M 341.535156 416.777344 C 344.039062 414.679688 346.023438 412.085938 348.316406 409.789062 C 349.921875 408.183594 349.589844 407.222656 347.96875 405.824219 C 319.167969 380.9375 290.414062 355.996094 261.648438 331.070312 C 256.5625 326.664062 251.460938 322.277344 246.394531 317.90625 C 246.003906 318.125 245.757812 318.210938 245.582031 318.371094 C 226.722656 335.378906 207.875 352.394531 189.019531 369.410156 C 176.902344 380.34375 164.820312 391.316406 152.621094 402.160156 C 151.046875 403.5625 151.222656 404.296875 152.394531 405.730469 C 159.226562 414.097656 166.960938 421.476562 175.628906 427.929688 C 195.039062 442.382812 216.945312 450.476562 240.871094 452.652344 C 253.28125 453.78125 265.773438 453.210938 278.117188 450.46875 C 302.273438 445.09375 323.464844 434.292969 341.535156 416.777344 M 274.539062 292.300781 C 268.386719 297.832031 262.238281 303.367188 255.867188 309.09375 C 290.050781 338.726562 323.867188 368.039062 357.984375 397.613281 C 377.925781 367.042969 384.6875 334.460938 377.335938 299.207031 C 371.925781 273.273438 359.140625 251.425781 339.90625 233.175781 C 332.742188 239.6875 325.859375 245.96875 318.945312 252.21875 C 304.238281 265.507812 289.515625 278.78125 274.539062 292.300781 M 209.476562 333.726562 C 218.410156 325.644531 227.339844 317.558594 236.492188 309.273438 C 209.910156 286.214844 183.601562 263.390625 157.3125 240.582031 C 137.074219 261.65625 121.8125 295.628906 124.203125 333.625 C 125.542969 354.953125 131.738281 374.796875 143.511719 393.214844 C 165.691406 373.210938 187.453125 353.589844 209.476562 333.726562 M 274.390625 275.136719 C 292.84375 258.460938 311.300781 241.78125 329.785156 225.074219 C 309.203125 208.09375 273.785156 194.292969 234.714844 199.738281 C 208.878906 203.335938 186.058594 213.730469 166.289062 231.417969 C 168.558594 233.378906 170.445312 234.996094 172.320312 236.625 C 196.234375 257.359375 220.160156 278.078125 244.027344 298.867188 C 245.660156 300.289062 246.601562 300.203125 248.144531 298.789062 C 256.75 290.921875 265.453125 283.164062 274.390625 275.136719 Z M 274.390625 275.136719 "/>
</g>
</svg>
