<?xml version="1.0" encoding="UTF-8"?>
<svg xmlns="http://www.w3.org/2000/svg" xmlns:xlink="http://www.w3.org/1999/xlink" width="50px" height="50px" viewBox="0 0 496 496" version="1.1">
<g id="surface1">
<path style=" stroke:none;fill-rule:nonzero;fill:rgb(0%,0%,0%);fill-opacity:1;" d="M 316.234375 496.5 C 312.375 493.980469 310.265625 490.8125 311.335938 486.140625 C 312.230469 482.230469 316.226562 478.839844 320.210938 479.109375 C 325.953125 479.496094 331.695312 478.855469 337.402344 479.105469 C 352.117188 479.746094 366.84375 479.03125 381.558594 479.769531 C 388.859375 480.132812 396.195312 479.71875 403.507812 479.902344 C 409.933594 480.0625 414.027344 484.792969 413.117188 490.589844 C 412.75 492.941406 411.367188 494.671875 409.605469 496.371094 C 378.488281 496.5 347.480469 496.5 316.234375 496.5 Z M 316.234375 496.5 "/>
<path style=" stroke:none;fill-rule:nonzero;fill:rgb(0%,0%,0%);fill-opacity:1;" d="M 213.632812 405 C 213.632812 423.90625 213.558594 442.566406 213.6875 461.222656 C 213.710938 465.097656 214.226562 468.925781 213.601562 472.84375 C 212.839844 477.609375 209.769531 480.398438 205.148438 481.769531 C 198.441406 483.757812 192.335938 480.957031 185.992188 480.304688 C 179.8125 479.671875 173.734375 477.496094 167.574219 477.316406 C 160.597656 477.117188 155.09375 473.753906 149.210938 471.035156 C 138.238281 465.96875 127.417969 460.601562 117.867188 453.050781 C 106.789062 444.289062 98.894531 433.097656 92.878906 420.425781 C 88.585938 411.375 85.875 401.792969 83.136719 392.226562 C 82.226562 389.054688 82.039062 385.683594 81.359375 382.441406 C 79.664062 374.332031 79.320312 366.117188 79.328125 357.878906 C 79.335938 349.742188 79.730469 341.660156 81.082031 333.570312 C 82.257812 326.515625 83.574219 319.527344 85.527344 312.65625 C 88.652344 301.65625 92.984375 291.167969 98.359375 281.0625 C 104.953125 268.664062 113.320312 257.617188 123.164062 247.710938 C 135.0625 235.738281 148.960938 226.722656 164.839844 220.875 C 172.957031 217.882812 181.273438 215.820312 189.890625 214.605469 C 194.457031 213.964844 199.003906 214.03125 203.542969 213.613281 C 208.710938 213.136719 213.484375 217.703125 213.296875 222.828125 C 212.824219 235.582031 214.066406 248.324219 213.511719 261.058594 C 212.703125 279.472656 214 297.875 213.523438 316.28125 C 213.324219 323.9375 213.183594 331.582031 213.429688 339.242188 C 213.507812 341.652344 214.082031 342.667969 216.695312 342.5625 C 229.273438 342.050781 241.847656 342.992188 254.425781 342.839844 C 258.589844 342.789062 262.753906 342.476562 266.914062 342.558594 C 269.402344 342.609375 269.949219 341.652344 269.945312 339.328125 C 269.890625 316.667969 269.941406 294.007812 269.964844 271.34375 C 269.984375 256.113281 269.9375 240.878906 270.054688 225.648438 C 270.117188 217.914062 274.683594 213.78125 282.34375 213.882812 C 297.296875 214.082031 311.894531 216.484375 326.335938 220.28125 C 342.875 224.628906 358.511719 231.066406 372.9375 240.214844 C 387.941406 249.722656 400.5 261.707031 408.542969 277.855469 C 412.242188 285.28125 414.15625 293.210938 415.253906 301.417969 C 416.582031 311.367188 417.601562 321.359375 419.820312 331.195312 C 421.335938 337.910156 421.890625 344.792969 421.804688 351.738281 C 421.695312 360.3125 421.722656 368.878906 418.941406 377.117188 C 416.664062 383.851562 413.0625 389.988281 409.675781 396.179688 C 403.710938 407.082031 396.96875 417.492188 388.894531 426.992188 C 377.511719 440.386719 364.148438 451.320312 348.902344 460.121094 C 340.269531 465.109375 330.816406 467.027344 321.339844 469.136719 C 310.175781 471.621094 298.816406 473.28125 288.082031 477.515625 C 285.117188 478.6875 281.8125 478.070312 278.671875 478.449219 C 276.699219 478.6875 274.671875 478.460938 272.683594 478.632812 C 270.484375 478.820312 269.761719 477.980469 269.804688 475.78125 C 270.03125 463.375 269.601562 450.972656 269.769531 438.558594 C 270.105469 413.734375 269.816406 388.898438 269.886719 364.066406 C 269.894531 361.570312 269.03125 361.019531 266.707031 361.046875 C 249.96875 361.238281 233.230469 360.628906 216.492188 361.019531 C 214.105469 361.074219 213.621094 361.878906 213.542969 364.058594 C 213.050781 377.625 213.738281 391.1875 213.632812 405 M 360.324219 253.941406 C 349.558594 247.484375 338.117188 242.628906 326.039062 239.203125 C 314.90625 236.046875 303.648438 233.621094 292.089844 232.683594 C 288.808594 232.417969 288.519531 232.554688 288.527344 235.890625 C 288.566406 246.96875 288.601562 258.042969 288.3125 269.125 C 287.960938 282.605469 288.953125 296.09375 288.253906 309.585938 C 287.726562 319.742188 288.683594 329.90625 288.519531 340.070312 C 288.484375 342.261719 289.1875 342.929688 291.382812 342.914062 C 301.882812 342.835938 312.378906 342.910156 322.878906 342.9375 C 328.605469 342.953125 332.707031 346.769531 332.679688 352.03125 C 332.65625 357.277344 328.539062 361.050781 322.789062 361.0625 C 312.289062 361.085938 301.792969 361.148438 291.292969 361.0625 C 288.941406 361.042969 288.113281 361.707031 288.117188 364.164062 C 288.128906 373.488281 288.441406 382.800781 288.265625 392.136719 C 287.871094 413.125 288.167969 434.128906 288.132812 455.125 C 288.128906 457.246094 288.867188 457.695312 290.867188 457.160156 C 301.933594 454.210938 313.191406 452.101562 324.375 449.679688 C 328.34375 448.820312 332.414062 448.128906 336.046875 446.230469 C 350.292969 438.800781 362.917969 429.21875 373.421875 417.027344 C 384.644531 404.003906 393.164062 389.230469 400.574219 373.789062 C 401.699219 371.449219 402.441406 368.921875 402.726562 366.402344 C 403.386719 360.550781 403.988281 354.679688 403.453125 348.757812 C 403.074219 344.53125 402.824219 340.292969 402.058594 336.117188 C 401.105469 330.902344 399.738281 325.746094 399.078125 320.496094 C 398.25 313.90625 397.671875 307.28125 396.59375 300.722656 C 395.59375 294.625 393.863281 288.722656 390.804688 283.320312 C 383.625 270.644531 372.984375 261.492188 360.324219 253.941406 M 152.855469 354.175781 C 151.167969 348.253906 155.753906 342.554688 161.988281 342.570312 C 172.226562 342.597656 182.464844 342.441406 192.703125 342.417969 C 194.304688 342.414062 194.898438 341.839844 194.90625 340.222656 C 194.945312 333.058594 195.277344 325.894531 195.136719 318.738281 C 194.914062 306.996094 194.886719 295.25 194.890625 283.507812 C 194.894531 267.425781 194.867188 251.347656 194.859375 235.265625 C 194.855469 233.804688 195.070312 232.414062 192.703125 232.714844 C 184.503906 233.753906 176.597656 235.828125 168.925781 238.886719 C 151.183594 245.957031 137.058594 257.691406 125.5 272.667969 C 115.734375 285.316406 108.703125 299.417969 104.023438 314.664062 C 100.625 325.738281 98.707031 337.09375 97.953125 348.675781 C 97.542969 355.015625 97.988281 361.304688 98.085938 367.617188 C 98.191406 374.578125 99.695312 381.3125 101.148438 388.003906 C 102.75 395.371094 105.0625 402.597656 108.0625 409.570312 C 113.5625 422.359375 121.136719 433.472656 132.832031 441.46875 C 140.921875 446.996094 149.703125 451.183594 158.566406 455.226562 C 160.886719 456.28125 163.027344 457.769531 165.625 458.210938 C 172.660156 459.402344 179.671875 460.726562 186.722656 461.8125 C 189.613281 462.257812 192.429688 463.386719 194.964844 463.183594 C 194.964844 458.324219 195.003906 453.675781 194.953125 449.03125 C 194.867188 440.699219 195.089844 432.378906 195.269531 424.050781 C 195.625 407.8125 194.34375 391.574219 195.15625 375.328125 C 195.355469 371.351562 195.109375 367.355469 195.164062 363.371094 C 195.199219 361.148438 194.175781 360.597656 192.085938 360.648438 C 182.175781 360.894531 172.273438 361.222656 162.355469 360.726562 C 157.816406 360.496094 154.78125 358.644531 152.855469 354.175781 Z M 152.855469 354.175781 "/>
<path style=" stroke:none;fill-rule:nonzero;fill:rgb(0%,0%,0%);fill-opacity:1;" d="M 303.753906 127.253906 C 306.84375 123.421875 309.789062 119.703125 312.816406 116.046875 C 316.394531 111.730469 321.894531 111.136719 326.113281 114.539062 C 330.035156 117.695312 330.570312 123.128906 327.105469 127.449219 C 319.457031 136.996094 311.679688 146.4375 303.953125 155.921875 C 294.753906 167.210938 285.558594 178.5 276.355469 189.785156 C 274.410156 192.167969 272.554688 194.648438 270.433594 196.863281 C 266.882812 200.574219 261.566406 200.730469 257.839844 197.449219 C 254.121094 194.179688 253.582031 188.867188 256.804688 184.882812 C 269.003906 169.8125 281.273438 154.796875 293.523438 139.761719 C 296.886719 135.632812 300.269531 131.515625 303.753906 127.253906 Z M 303.753906 127.253906 "/>
<path style=" stroke:none;fill-rule:nonzero;fill:rgb(0%,0%,0%);fill-opacity:1;" d="M 204.511719 190.972656 C 191.53125 175.226562 178.664062 159.613281 165.792969 144.003906 C 162.246094 139.699219 158.757812 135.339844 155.132812 131.101562 C 149.550781 124.578125 153.839844 116.867188 161.039062 115.699219 C 164.449219 115.144531 167.261719 117.101562 169.441406 119.734375 C 174.273438 125.566406 179.074219 131.425781 183.902344 137.261719 C 194.992188 150.667969 206.09375 164.0625 217.179688 177.472656 C 218.878906 179.523438 220.59375 181.566406 222.191406 183.691406 C 225.246094 187.753906 224.710938 192.675781 220.933594 196 C 217.214844 199.28125 212.109375 199.179688 208.539062 195.644531 C 207.125 194.246094 205.921875 192.628906 204.511719 190.972656 Z M 204.511719 190.972656 "/>
</g>
</svg>
