<?xml version="1.0" encoding="UTF-8"?>
<svg xmlns="http://www.w3.org/2000/svg" xmlns:xlink="http://www.w3.org/1999/xlink" width="50px" height="50px" viewBox="0 0 496 496" version="1.1">
<g id="surface1">
<path style=" stroke:none;fill-rule:nonzero;fill:rgb(0%,0%,0%);fill-opacity:1;" d="M 206.097656 476.941406 C 186.296875 468.414062 168.769531 456.855469 153.175781 442.1875 C 131.039062 421.363281 114.78125 396.710938 104.117188 368.351562 C 98.507812 353.421875 94.90625 337.992188 93.257812 322.082031 C 92.097656 310.871094 91.886719 299.644531 92.457031 288.4375 C 93.664062 264.683594 99.273438 241.933594 109.0625 220.230469 C 115.527344 205.882812 123.535156 192.429688 133.296875 180.117188 C 146.953125 162.890625 162.929688 148.164062 181.703125 136.53125 C 198.496094 126.121094 216.445312 118.523438 235.65625 114.078125 C 252.847656 110.097656 270.316406 108.515625 287.953125 109.839844 C 298.234375 110.609375 308.464844 111.890625 318.5 114.40625 C 336.390625 118.894531 353.265625 125.789062 369.085938 135.332031 C 382.511719 143.433594 394.644531 153.15625 405.566406 164.332031 C 417.3125 176.351562 427.28125 189.757812 435.636719 204.382812 C 441.199219 214.109375 445.691406 224.28125 449.527344 234.777344 C 450.199219 236.621094 450.195312 237.765625 448.589844 239.414062 C 446.269531 241.792969 443.859375 242.746094 440.652344 242.734375 C 409.820312 242.609375 378.988281 242.742188 348.160156 242.441406 C 300.757812 241.984375 253.355469 242.332031 205.953125 241.996094 C 204.542969 241.988281 203.101562 241.964844 201.738281 241.667969 C 198.515625 240.972656 196.335938 238.210938 196.324219 235.058594 C 196.308594 231.882812 198.4375 229.195312 201.617188 228.324219 C 203.257812 227.875 204.929688 228.003906 206.589844 228.027344 C 257.15625 228.695312 307.730469 227.996094 358.296875 228.554688 C 381.457031 228.8125 404.609375 228.738281 427.765625 228.824219 C 428.886719 228.828125 430.089844 229.164062 431.257812 228.339844 C 431.285156 226.722656 430.414062 225.359375 429.75 223.980469 C 422.453125 208.828125 413.628906 194.695312 402.519531 181.980469 C 385.414062 162.398438 365.1875 147.140625 341.246094 136.933594 C 319.414062 127.625 296.589844 123.0625 272.859375 123.714844 C 233.832031 124.789062 199.253906 137.890625 169.378906 163.050781 C 153.234375 176.644531 140.183594 192.820312 129.679688 211.164062 C 120.0625 227.96875 113.621094 245.882812 109.910156 264.789062 C 106.113281 284.121094 105.480469 303.574219 107.898438 323.1875 C 110.546875 344.660156 116.589844 365.039062 126.644531 384.152344 C 136.414062 402.722656 148.9375 419.214844 164.511719 433.421875 C 181.953125 449.335938 201.757812 461.148438 224.054688 468.691406 C 236.046875 472.75 248.382812 475.421875 261.074219 476.445312 C 270.0625 477.171875 279.046875 477.332031 288.003906 476.761719 C 305.226562 475.667969 321.878906 471.789062 337.867188 465.25 C 358.621094 456.761719 377.046875 444.738281 392.957031 428.855469 C 404.457031 417.375 414.347656 404.730469 422.46875 390.625 C 428.191406 380.6875 432.769531 370.285156 436.664062 359.542969 C 437.800781 356.410156 437.621094 356.140625 434.316406 356.136719 C 394.65625 356.074219 354.988281 356.21875 315.328125 355.890625 C 280.082031 355.59375 244.839844 355.671875 209.59375 355.535156 C 205.121094 355.515625 201.800781 353.050781 201.359375 349.457031 C 200.78125 344.777344 204.046875 341.371094 209.25 341.367188 C 223.832031 341.359375 238.414062 341.296875 252.996094 341.445312 C 314.484375 342.078125 375.976562 341.734375 437.46875 342.054688 C 440.882812 342.070312 444.296875 342.171875 447.707031 342.332031 C 452.304688 342.550781 455.335938 346.886719 454.160156 351.230469 C 448.921875 370.582031 441.074219 388.800781 430.148438 405.613281 C 421.410156 419.058594 411.257812 431.335938 399.519531 442.359375 C 381.84375 458.957031 361.722656 471.539062 339.070312 480.023438 C 319.972656 487.175781 300.257812 490.945312 279.761719 491.261719 C 256.617188 491.617188 234.355469 487.738281 212.742188 479.683594 C 210.558594 478.871094 208.425781 477.914062 206.097656 476.941406 Z M 206.097656 476.941406 "/>
<path style=" stroke:none;fill-rule:nonzero;fill:rgb(0%,0%,0%);fill-opacity:1;" d="M 339.714844 433.796875 C 321.464844 439.132812 303.976562 425.285156 305.007812 406.527344 C 305.671875 394.414062 316.28125 383.460938 328.425781 382.3125 C 339.164062 381.300781 347.941406 384.839844 354.199219 393.746094 C 364.492188 408.40625 357.15625 428.785156 339.714844 433.796875 Z M 339.714844 433.796875 "/>
<path style=" stroke:none;fill-rule:nonzero;fill:rgb(0%,0%,0%);fill-opacity:1;" d="M 75.132812 129.902344 C 86.664062 150.742188 98.109375 171.421875 109.578125 192.089844 C 110.828125 194.335938 111.773438 196.632812 110.988281 199.214844 C 110.132812 202.03125 108.109375 203.726562 105.222656 204.070312 C 102.121094 204.441406 99.722656 203.125 98.1875 200.355469 C 94.671875 194.023438 91.152344 187.695312 87.648438 181.359375 C 74.917969 158.34375 62.191406 135.328125 49.46875 112.308594 C 47.492188 108.738281 45.464844 105.199219 43.59375 101.578125 C 41.5625 97.648438 42.664062 93.867188 46.226562 91.992188 C 49.804688 90.109375 53.691406 91.253906 55.796875 95.023438 C 62.257812 106.570312 68.640625 118.164062 75.132812 129.902344 Z M 75.132812 129.902344 "/>
<path style=" stroke:none;fill-rule:nonzero;fill:rgb(0%,0%,0%);fill-opacity:1;" d="M 104.632812 94.890625 C 114.898438 114.988281 125.097656 134.910156 135.253906 154.859375 C 137.054688 158.394531 135.808594 162.167969 132.421875 164.070312 C 129.042969 165.972656 125.234375 165.035156 123.152344 161.53125 C 121.453125 158.675781 120.046875 155.644531 118.535156 152.683594 C 109.457031 134.898438 100.398438 117.101562 91.300781 99.328125 C 89.941406 96.675781 90.039062 94.15625 91.796875 91.824219 C 93.382812 89.71875 95.515625 88.40625 98.273438 88.898438 C 101.558594 89.488281 103.375 91.796875 104.632812 94.890625 Z M 104.632812 94.890625 "/>
</g>
</svg>
