<?xml version="1.0" encoding="UTF-8"?>
<svg xmlns="http://www.w3.org/2000/svg" xmlns:xlink="http://www.w3.org/1999/xlink" width="50px" height="50px" viewBox="0 0 496 496" version="1.1">
<g id="surface1">
<path style=" stroke:none;fill-rule:nonzero;fill:rgb(0%,0%,0%);fill-opacity:1;" d="M 237.734375 496.5 C 238.207031 435.789062 237.679688 375.078125 237.933594 314.628906 C 235.136719 317.222656 232.15625 319.707031 229.503906 322.5 C 215.394531 337.355469 201.375 352.292969 187.3125 367.195312 C 170.734375 384.761719 154.144531 402.316406 137.5625 419.878906 C 135.273438 422.300781 133.035156 424.765625 130.703125 427.148438 C 129.726562 428.144531 129.632812 428.882812 130.421875 430.144531 C 141.671875 448.136719 137.382812 470.667969 120.371094 483.320312 C 105.40625 494.449219 82.765625 491.292969 71.121094 476.695312 C 65.152344 469.210938 62.023438 460.789062 62.066406 451.359375 C 62.167969 428.882812 80.5 411.355469 102.324219 413.03125 C 107.15625 413.402344 111.847656 414.714844 116.085938 417.171875 C 117.707031 418.113281 118.550781 417.84375 119.816406 416.503906 C 138.253906 396.914062 156.777344 377.402344 175.265625 357.855469 C 191.976562 340.183594 208.675781 322.5 225.367188 304.8125 C 225.863281 304.289062 226.542969 303.851562 226.609375 302.753906 C 224.542969 301.742188 222.335938 300.800781 220.265625 299.625 C 208.925781 293.183594 196.636719 288.933594 184.675781 283.890625 C 165.429688 275.777344 149.128906 263.636719 136.960938 246.402344 C 130.917969 237.84375 126.421875 228.523438 123.445312 218.445312 C 120.382812 208.054688 118.9375 197.460938 119.480469 186.671875 C 120.15625 173.195312 123.125 160.226562 128.628906 147.835938 C 134.277344 135.128906 141.917969 123.8125 151.570312 113.84375 C 162.359375 102.695312 174.9375 94.113281 189.089844 87.789062 C 199.796875 83.003906 211 79.90625 222.542969 78.066406 C 226.722656 77.402344 230.972656 77.109375 235.203125 76.859375 C 238.34375 76.671875 241.359375 76.710938 244.410156 75.296875 C 248.449219 73.425781 253.667969 77.214844 254.121094 81.910156 C 254.226562 82.984375 254.171875 84.074219 254.171875 85.15625 C 254.101562 126.152344 254.050781 167.148438 253.953125 208.144531 C 253.898438 229.960938 253.765625 251.773438 253.667969 273.585938 C 253.664062 274.582031 253.667969 275.578125 253.667969 277.398438 C 293.476562 234.816406 332.820312 192.730469 372.058594 150.753906 C 371.976562 149.449219 371.054688 149.003906 370.496094 148.324219 C 359.570312 135.03125 360.554688 117.847656 371.996094 105.867188 C 386.25 90.949219 410.683594 89.609375 426.589844 103.589844 C 443.265625 118.25 441.621094 140.933594 424.515625 153.839844 C 413.628906 162.054688 401.320312 163.816406 388.28125 159.851562 C 386.085938 159.183594 384.6875 159.484375 383.082031 161.214844 C 363.921875 181.839844 344.683594 202.386719 325.457031 222.949219 C 308.28125 241.320312 291.085938 259.675781 273.914062 278.046875 C 269.941406 282.296875 266.027344 286.597656 262.058594 290.902344 C 262.8125 291.804688 263.757812 291.71875 264.636719 291.824219 C 296.566406 295.597656 323.015625 308.953125 341.335938 336.164062 C 347.707031 345.632812 351.777344 356.144531 354.289062 367.335938 C 356.742188 378.273438 357.214844 389.261719 356.078125 400.320312 C 354.882812 411.976562 351.703125 423.15625 346.941406 433.867188 C 339.945312 449.601562 330.066406 463.3125 317.621094 475.152344 C 310.917969 481.523438 303.886719 487.515625 295.675781 491.976562 C 292.199219 493.863281 288.4375 494.914062 284.644531 496.394531 C 268.988281 496.5 253.480469 496.5 237.734375 496.5 M 159.21875 127.960938 C 147.871094 141.164062 140.230469 156.164062 136.804688 173.3125 C 133.855469 188.070312 134.386719 202.617188 139.15625 216.890625 C 147.183594 240.898438 163.863281 257.042969 186.105469 268.105469 C 193.21875 271.644531 200.777344 273.992188 208.109375 276.945312 C 215.703125 279.996094 222.667969 284.3125 230.070312 287.746094 C 232.53125 288.890625 235.027344 289.957031 237.914062 291.238281 C 237.914062 289.976562 237.90625 289.167969 237.914062 288.359375 C 238.066406 271.78125 238.117188 255.199219 238.203125 238.621094 C 238.457031 190.539062 238.386719 142.460938 238.445312 94.378906 C 238.445312 94.128906 238.425781 93.878906 238.4375 93.628906 C 238.503906 92.292969 237.957031 91.585938 236.535156 91.667969 C 235.621094 91.71875 234.695312 91.617188 233.789062 91.71875 C 224.679688 92.71875 215.679688 94.253906 206.917969 97.050781 C 188.324219 102.988281 172.4375 113.089844 159.21875 127.960938 M 253.625 406.25 C 253.480469 430.992188 253.332031 455.730469 253.191406 480.472656 C 253.175781 483.9375 253.402344 484.082031 256.808594 484.25 C 261.566406 484.484375 266.277344 484.054688 271.003906 483.574219 C 279.363281 482.726562 287.144531 480.433594 293.941406 475.300781 C 302.140625 469.101562 309.671875 462.222656 316.234375 454.269531 C 328.6875 439.1875 337.035156 422.261719 339.953125 402.804688 C 342.363281 386.746094 340.925781 371.121094 334.5625 356.105469 C 326.667969 337.488281 313.28125 324.167969 295.082031 315.527344 C 283.355469 309.960938 270.941406 307.175781 258.074219 306.125 C 256.703125 306.011719 255.328125 305.296875 253.625 306.234375 C 253.625 339.308594 253.625 372.53125 253.625 406.25 M 79.691406 461.527344 C 80.457031 462.910156 81.113281 464.363281 82.003906 465.65625 C 88.40625 474.941406 99.042969 477.242188 107.714844 473.210938 C 115.527344 469.578125 119.742188 462.980469 120.832031 454.445312 C 122.171875 443.972656 117.519531 436.179688 109.207031 430.613281 C 102.042969 425.8125 91.535156 427.328125 85.257812 433.566406 C 77.316406 441.453125 76.054688 450.84375 79.691406 461.527344 M 412.957031 112.269531 C 405.085938 108.003906 397.050781 107.691406 389.066406 111.726562 C 376.453125 118.101562 374.65625 133.984375 386.113281 142.1875 C 394.476562 148.175781 403.609375 148.386719 412.511719 143.703125 C 419.132812 140.21875 422.925781 134.457031 422.332031 126.570312 C 421.859375 120.273438 418.5 115.746094 412.957031 112.269531 Z M 412.957031 112.269531 "/>
<path style=" stroke:none;fill-rule:nonzero;fill:rgb(0%,0%,0%);fill-opacity:1;" d="M 423.355469 218.535156 C 422.703125 223.015625 420.804688 225.097656 416.867188 225.855469 C 413.609375 226.484375 410.550781 224.972656 408.566406 221.644531 C 401.609375 209.996094 394.664062 198.34375 387.757812 186.667969 C 385.246094 182.421875 386.054688 178.128906 389.648438 175.925781 C 393.847656 173.351562 398.257812 174.488281 400.941406 178.964844 C 407.921875 190.59375 414.851562 202.257812 421.804688 213.90625 C 422.625 215.277344 423.253906 216.714844 423.355469 218.535156 Z M 423.355469 218.535156 "/>
<path style=" stroke:none;fill-rule:nonzero;fill:rgb(0%,0%,0%);fill-opacity:1;" d="M 115.636719 371.777344 C 114.425781 375.542969 111.726562 377.820312 108.46875 378.019531 C 105.457031 378.203125 102.171875 376.179688 100.886719 372.898438 C 98.734375 367.402344 96.796875 361.824219 94.808594 356.265625 C 92.34375 349.375 89.851562 342.492188 87.507812 335.558594 C 86.066406 331.300781 88.058594 327.414062 92.183594 325.949219 C 96.105469 324.554688 100.542969 326.523438 101.996094 330.523438 C 105.65625 340.597656 109.207031 350.714844 112.792969 360.820312 C 114.035156 364.320312 116.035156 367.625 115.636719 371.777344 Z M 115.636719 371.777344 "/>
<path style=" stroke:none;fill-rule:nonzero;fill:rgb(0%,0%,0%);fill-opacity:1;" d="M 455.601562 217.722656 C 450.648438 220.09375 446.964844 219.109375 444.132812 214.558594 C 437.769531 204.316406 431.464844 194.035156 425.195312 183.734375 C 422.675781 179.59375 423.488281 175.671875 427.164062 173.363281 C 430.96875 170.976562 435.539062 171.867188 438.128906 175.6875 C 440.132812 178.644531 441.921875 181.75 443.800781 184.789062 C 448.390625 192.21875 453 199.636719 457.550781 207.089844 C 460.113281 211.285156 459.53125 214.441406 455.601562 217.722656 Z M 455.601562 217.722656 "/>
<path style=" stroke:none;fill-rule:nonzero;fill:rgb(0%,0%,0%);fill-opacity:1;" d="M 97.765625 397.082031 C 96.085938 400.183594 93.503906 401.625 90.300781 401.476562 C 86.953125 401.320312 84.585938 399.425781 83.269531 396.296875 C 78.507812 384.960938 73.6875 373.648438 69.007812 362.273438 C 67.398438 358.359375 69.113281 354.527344 72.929688 352.722656 C 76.648438 350.960938 80.996094 352.238281 82.976562 356.050781 C 84.734375 359.433594 86.082031 363.03125 87.566406 366.554688 C 90.820312 374.28125 94.035156 382.023438 97.292969 389.75 C 98.28125 392.089844 99.203125 394.402344 97.765625 397.082031 Z M 97.765625 397.082031 "/>
</g>
</svg>
