<?xml version="1.0" encoding="UTF-8"?>
<svg xmlns="http://www.w3.org/2000/svg" xmlns:xlink="http://www.w3.org/1999/xlink" width="50px" height="50px" viewBox="0 0 496 496" version="1.1">
<g id="surface1">
<path style=" stroke:none;fill-rule:nonzero;fill:rgb(0%,0%,0%);fill-opacity:1;" d="M 202.730469 496.5 C 199.75 495.488281 196.832031 495.273438 193.988281 494.71875 C 187.546875 493.464844 181.089844 492.289062 174.636719 491.105469 C 170.914062 490.425781 167.015625 490.851562 163.480469 489 C 154.9375 484.527344 146.152344 480.523438 137.753906 475.773438 C 131.429688 472.195312 125.480469 468.078125 120.027344 463.257812 C 110.953125 455.242188 104.328125 445.464844 99.070312 434.628906 C 93.511719 423.167969 90.011719 411.066406 87.550781 398.648438 C 85.625 388.929688 84.867188 379.039062 85.054688 369.148438 C 85.246094 359.359375 85.984375 349.609375 87.984375 339.941406 C 89.554688 332.359375 91.417969 324.886719 93.914062 317.585938 C 99.367188 301.636719 107.125 286.910156 117.46875 273.539062 C 129.695312 257.730469 144.449219 245.011719 162.496094 236.316406 C 174.496094 230.535156 187.136719 226.894531 200.429688 225.378906 C 204.839844 224.875 209.234375 224.960938 213.628906 224.730469 C 218.988281 224.453125 223.71875 229.257812 223.46875 234.535156 C 222.871094 247.273438 223.304688 260.019531 223.042969 272.757812 C 222.847656 282.164062 222.210938 291.570312 222.339844 300.96875 C 222.570312 317.804688 221.484375 334.605469 221.589844 351.429688 C 221.617188 355.445312 221.570312 355.449219 225.46875 355.449219 C 242.042969 355.460938 258.59375 356.628906 275.171875 356.410156 C 278.925781 356.359375 278.867188 356.417969 278.929688 352.769531 C 279.300781 330.710938 279.8125 308.652344 280.066406 286.589844 C 280.171875 277.101562 280.328125 267.601562 280.492188 258.109375 C 280.625 250.785156 280.84375 243.460938 281.164062 236.144531 C 281.40625 230.59375 286.375 226.285156 292.128906 226.367188 C 300.878906 226.496094 309.550781 227.398438 318.15625 228.957031 C 335.421875 232.082031 352.078125 237.109375 367.898438 244.804688 C 383.339844 252.316406 397.34375 261.769531 408.605469 274.882812 C 416.230469 283.757812 421.925781 293.648438 424.867188 305.15625 C 427.007812 313.515625 427.648438 322.007812 428.542969 330.503906 C 429.144531 336.207031 430.261719 341.820312 431.3125 347.449219 C 432.878906 355.820312 433.40625 364.28125 432.925781 372.792969 C 432.425781 381.621094 431.703125 390.40625 427.621094 398.5 C 424.625 404.453125 421.410156 410.28125 418.03125 416.027344 C 409.539062 430.472656 399.558594 443.742188 387.222656 455.140625 C 375.945312 465.558594 363.34375 474.058594 349.308594 480.289062 C 343.050781 483.070312 336.167969 483.789062 329.496094 485.136719 C 317.867188 487.484375 306.195312 489.503906 294.808594 493.101562 C 289.535156 494.765625 283.585938 494.1875 277.921875 494.011719 C 276.457031 493.964844 276.40625 492.6875 276.414062 491.574219 C 276.449219 487.574219 276.46875 483.574219 276.558594 479.574219 C 276.964844 461.257812 277.226562 442.933594 277.554688 424.613281 C 277.832031 409.210938 278.257812 393.804688 278.394531 378.398438 C 278.425781 375.078125 278.414062 375.117188 275.089844 375.070312 C 258.519531 374.851562 241.964844 373.855469 225.382812 374.097656 C 221.335938 374.160156 221.332031 374.109375 221.171875 378.300781 C 220.558594 394.367188 220.988281 410.453125 220.457031 426.515625 C 220.015625 439.847656 220.179688 453.171875 220.019531 466.496094 C 219.960938 471.394531 219.46875 476.261719 220.121094 481.210938 C 220.496094 484.0625 219.769531 487.195312 218.753906 490.015625 C 217.628906 493.121094 215.246094 494.996094 211.96875 495.667969 C 211.074219 495.851562 210.195312 496.085938 209.152344 496.398438 C 206.988281 496.5 204.976562 496.5 202.730469 496.5 M 344.066406 254.699219 C 330.429688 250.328125 316.644531 246.632812 302.308594 245.308594 C 300.144531 245.109375 299.476562 245.691406 299.503906 247.785156 C 299.648438 258.617188 299.109375 269.429688 298.761719 280.25 C 298.335938 293.402344 298.796875 306.566406 298.179688 319.726562 C 297.648438 331.035156 297.792969 342.375 297.644531 353.703125 C 297.601562 356.890625 297.613281 356.871094 300.785156 356.921875 C 311.363281 357.097656 321.941406 357.265625 332.519531 357.488281 C 337.554688 357.59375 341.15625 360.457031 342.367188 365.15625 C 343.25 368.566406 341.183594 372.792969 337.625 374.792969 C 335.910156 375.757812 334.03125 376.054688 332.089844 376.027344 C 321.34375 375.871094 310.597656 375.757812 299.855469 375.539062 C 297.824219 375.496094 297.097656 376.125 297.09375 378.226562 C 297.074219 387.386719 297.042969 396.542969 296.660156 405.707031 C 296.238281 415.9375 296.289062 426.1875 296.128906 436.433594 C 295.957031 447.507812 295.769531 458.582031 295.628906 469.660156 C 295.613281 470.769531 295.273438 471.976562 296.113281 473.105469 C 296.511719 473.054688 296.925781 473.050781 297.3125 472.949219 C 306.230469 470.585938 315.296875 468.941406 324.367188 467.265625 C 330.230469 466.183594 336.28125 465.503906 341.800781 463.214844 C 353.839844 458.222656 364.429688 450.832031 374.039062 442.101562 C 387.199219 430.152344 396.8125 415.515625 405.804688 400.3125 C 411.640625 390.449219 414.539062 380.117188 414.449219 368.804688 C 414.378906 360.304688 413.363281 351.878906 411.613281 343.589844 C 410.128906 336.554688 409.753906 329.417969 408.960938 322.328125 C 408.40625 317.347656 407.714844 312.417969 406.273438 307.65625 C 401.914062 293.222656 392.273438 282.710938 380.550781 273.863281 C 369.554688 265.566406 357.265625 259.667969 344.066406 254.699219 M 140.78125 275.019531 C 134.179688 281.464844 128.835938 288.894531 124.058594 296.734375 C 118.546875 305.785156 114.117188 315.375 110.914062 325.480469 C 108.128906 334.277344 106.003906 343.238281 104.941406 352.441406 C 104.003906 360.550781 103.726562 368.640625 103.980469 376.820312 C 104.164062 382.765625 104.953125 388.59375 105.882812 394.394531 C 107.648438 405.425781 110.902344 416.0625 115.617188 426.222656 C 120.570312 436.898438 127.3125 446.117188 136.886719 453.183594 C 143.960938 458.40625 151.636719 462.546875 159.539062 466.292969 C 163.351562 468.105469 166.921875 470.558594 171.105469 471.464844 C 178.167969 472.988281 185.265625 474.332031 192.359375 475.714844 C 195.25 476.277344 198.15625 476.738281 201.140625 477.257812 C 201.628906 475.105469 200.953125 473.316406 200.996094 471.503906 C 201.273438 460.433594 201.601562 449.363281 201.722656 438.289062 C 201.945312 417.972656 201.929688 397.652344 202.667969 377.339844 C 202.800781 373.722656 202.484375 373.554688 198.898438 373.5 C 189.070312 373.351562 179.242188 373.230469 169.417969 373.011719 C 165.589844 372.925781 162.574219 371.335938 160.597656 367.859375 C 158.703125 364.53125 159.191406 361.464844 161.234375 358.492188 C 163.246094 355.5625 166.160156 354.4375 169.636719 354.488281 C 179.875 354.640625 190.113281 354.738281 200.351562 354.925781 C 202.136719 354.957031 202.914062 354.445312 202.886719 352.535156 C 202.804688 346.875 203.238281 341.210938 203.25 335.558594 C 203.277344 315.246094 203.914062 294.945312 204.148438 274.636719 C 204.253906 265.226562 204.296875 255.8125 204.449219 246.402344 C 204.480469 244.421875 204.179688 243.648438 201.8125 243.933594 C 197.011719 244.515625 192.285156 245.347656 187.636719 246.644531 C 169.5 251.703125 153.808594 260.828125 140.78125 275.019531 Z M 140.78125 275.019531 "/>
<path style=" stroke:none;fill-rule:nonzero;fill:rgb(0%,0%,0%);fill-opacity:1;" d="M 101.8125 233.808594 C 88.769531 248.265625 78.914062 264.484375 72.171875 282.535156 C 69.078125 290.820312 67.222656 299.453125 66.679688 308.316406 C 66.449219 312.050781 63.632812 314.914062 60.152344 314.84375 C 56.523438 314.773438 53.707031 311.78125 53.824219 307.882812 C 54.132812 297.46875 56.433594 287.453125 60.117188 277.746094 C 70.84375 249.464844 87.832031 225.664062 111.542969 206.839844 C 123.578125 197.28125 137.109375 190.679688 152.425781 188.144531 C 154.308594 187.832031 156.222656 187.632812 158.128906 187.554688 C 162.125 187.390625 165.539062 190.363281 165.660156 193.992188 C 165.785156 197.730469 162.929688 200.402344 158.796875 200.679688 C 147.398438 201.449219 137.070312 205.433594 127.5 211.472656 C 117.855469 217.5625 109.515625 225.195312 101.8125 233.808594 Z M 101.8125 233.808594 "/>
<path style=" stroke:none;fill-rule:nonzero;fill:rgb(0%,0%,0%);fill-opacity:1;" d="M 436.164062 158.539062 C 422.441406 186.789062 408.792969 214.863281 395.128906 242.925781 C 393.546875 246.175781 390.847656 247.902344 388.117188 247.527344 C 385.460938 247.164062 383.277344 245.003906 382.53125 242.117188 C 382.074219 240.351562 382.742188 238.839844 383.472656 237.335938 C 389.8125 224.3125 396.164062 211.296875 402.503906 198.277344 C 409.796875 183.308594 417.078125 168.335938 424.367188 153.367188 C 425.878906 150.269531 428.460938 148.632812 431.234375 148.992188 C 434.027344 149.355469 436.230469 151.441406 436.898438 154.261719 C 437.246094 155.742188 436.855469 157.058594 436.164062 158.539062 Z M 436.164062 158.539062 "/>
<path style=" stroke:none;fill-rule:nonzero;fill:rgb(0%,0%,0%);fill-opacity:1;" d="M 349.648438 222.75 C 348.085938 220.433594 348.28125 218.25 349.265625 215.945312 C 353.847656 205.222656 358.359375 194.476562 362.925781 183.75 C 364.574219 179.878906 368.207031 178.179688 371.59375 179.609375 C 375.214844 181.140625 376.582031 184.886719 374.933594 188.78125 C 370.382812 199.511719 365.84375 210.246094 361.261719 220.964844 C 358.9375 226.390625 353.710938 227.25 349.648438 222.75 Z M 349.648438 222.75 "/>
</g>
</svg>
