<?xml version="1.0" encoding="UTF-8"?>
<svg xmlns="http://www.w3.org/2000/svg" xmlns:xlink="http://www.w3.org/1999/xlink" width="50px" height="50px" viewBox="0 0 496 496" version="1.1">
<g id="surface1">
<path style=" stroke:none;fill-rule:nonzero;fill:rgb(0%,0%,0%);fill-opacity:1;" d="M 97.734375 496.5 C 94.894531 494.429688 94.332031 491.558594 94.332031 488.453125 C 94.328125 460.542969 94.367188 432.628906 94.300781 404.714844 C 94.160156 346.746094 94.09375 288.773438 93.730469 230.804688 C 93.542969 200.894531 93.625 170.988281 93.535156 141.078125 C 93.527344 138.816406 93.019531 137.765625 90.5 137.328125 C 83.347656 136.078125 76.394531 134.089844 70.0625 130.320312 C 63.703125 126.53125 58.445312 121.703125 55.167969 114.953125 C 50.210938 104.738281 52.625 92.800781 61.566406 84.1875 C 68.664062 77.347656 77.316406 73.535156 86.882812 71.480469 C 102.636719 68.097656 117.6875 69.90625 131.914062 77.46875 C 139.238281 81.355469 145.003906 86.933594 148.179688 94.78125 C 151.859375 103.890625 150.089844 112.371094 144.378906 119.953125 C 137.613281 128.933594 128.101562 133.707031 117.335938 136.199219 C 114.988281 136.742188 112.625 137.246094 110.246094 137.625 C 108.375 137.925781 108.660156 139.277344 108.664062 140.480469 C 108.679688 149.144531 108.683594 157.8125 108.769531 166.476562 C 109.238281 212.214844 108.96875 257.957031 109.070312 303.695312 C 109.132812 334.023438 109.128906 364.355469 109.1875 394.683594 C 109.195312 399.09375 109.433594 403.507812 109.4375 407.921875 C 109.4375 409.332031 109.855469 409.898438 111.277344 409.839844 C 112.941406 409.769531 114.609375 409.832031 116.273438 409.835938 C 132.6875 409.890625 149.109375 409.699219 165.515625 410.058594 C 186.59375 410.523438 207.675781 410.015625 228.746094 410.515625 C 252.074219 411.066406 275.398438 410.730469 298.722656 411.039062 C 302.96875 411.09375 307.214844 411.25 311.460938 411.363281 C 315.835938 411.476562 319.171875 414.613281 319.15625 418.601562 C 319.144531 422.640625 315.609375 425.839844 311.164062 425.777344 C 287.507812 425.445312 263.847656 425.757812 240.1875 425.25 C 221.613281 424.851562 203.023438 425.277344 184.449219 424.902344 C 163.203125 424.472656 141.960938 424.765625 120.71875 424.492188 C 117.722656 424.453125 114.726562 424.304688 111.730469 424.164062 C 110.335938 424.097656 109.53125 424.492188 109.535156 426.089844 C 109.59375 444.921875 109.617188 463.75 109.660156 482.582031 C 109.660156 482.816406 109.785156 483.050781 110 483.800781 C 114.253906 483.800781 118.632812 483.785156 123.015625 483.804688 C 169.667969 484.039062 216.320312 484.089844 262.96875 484.578125 C 298.539062 484.949219 334.113281 484.472656 369.679688 485.0625 C 387.921875 485.367188 406.160156 485.207031 424.402344 485.339844 C 431.125 485.386719 434.253906 489.769531 432.058594 496.316406 C 320.65625 496.5 209.3125 496.5 97.734375 496.5 M 133.792969 99.542969 C 133.292969 98.109375 132.503906 96.847656 131.492188 95.71875 C 126.316406 89.949219 119.5625 87.167969 112.1875 85.632812 C 108.632812 84.894531 108.585938 84.972656 108.589844 88.605469 C 108.605469 98.835938 108.636719 109.066406 108.683594 119.296875 C 108.691406 120.4375 108.542969 121.625 109.203125 122.707031 C 109.449219 122.757812 109.695312 122.875 109.925781 122.84375 C 117.707031 121.832031 124.765625 119.078125 130.425781 113.539062 C 134.234375 109.8125 135.949219 105.273438 133.792969 99.542969 M 72.90625 114.34375 C 78.050781 118.882812 84.183594 121.269531 90.800781 122.660156 C 92.664062 123.050781 93.398438 122.585938 93.394531 120.617188 C 93.363281 109.542969 93.382812 98.464844 93.441406 87.386719 C 93.449219 85.382812 92.640625 84.992188 90.800781 85.402344 C 87.703125 86.09375 84.699219 87.074219 81.773438 88.257812 C 78.277344 89.675781 75.054688 91.636719 72.351562 94.277344 C 66.429688 100.074219 66.351562 108.292969 72.90625 114.34375 Z M 72.90625 114.34375 "/>
<path style=" stroke:none;fill-rule:nonzero;fill:rgb(0%,0%,0%);fill-opacity:1;" d="M 153.09375 233.597656 C 166.574219 218.835938 179.921875 204.195312 193.292969 189.574219 C 206.777344 174.832031 220.269531 160.097656 233.789062 145.386719 C 236.261719 142.691406 240.382812 141.890625 243.105469 143.492188 C 245.007812 144.609375 246.179688 146.203125 246.167969 148.5625 C 246.082031 173.878906 246.132812 199.199219 245.875 224.511719 C 245.796875 232.253906 245.730469 239.996094 245.621094 247.738281 C 245.566406 251.792969 243.414062 254.292969 239.410156 254.832031 C 238.425781 254.964844 237.417969 254.953125 236.417969 254.953125 C 208.183594 254.957031 179.953125 254.957031 151.71875 254.941406 C 150.308594 254.941406 148.890625 254.855469 147.484375 254.722656 C 144.984375 254.484375 143.035156 253.347656 141.996094 250.984375 C 140.925781 248.546875 141.675781 246.367188 143.292969 244.507812 C 146.464844 240.863281 149.738281 237.3125 153.09375 233.597656 M 226.238281 242.828125 C 227.15625 242.828125 228.070312 242.828125 228.988281 242.828125 C 232.863281 242.832031 232.871094 242.832031 232.894531 239.046875 C 233.058594 215.058594 233.226562 191.066406 233.371094 167.078125 C 233.375 166.3125 233.699219 165.445312 232.925781 164.664062 C 209.234375 190.585938 185.585938 216.464844 161.492188 242.828125 C 183.441406 242.828125 204.59375 242.828125 226.238281 242.828125 Z M 226.238281 242.828125 "/>
</g>
</svg>
