<?xml version="1.0" encoding="UTF-8"?>
<svg xmlns="http://www.w3.org/2000/svg" xmlns:xlink="http://www.w3.org/1999/xlink" width="50px" height="50px" viewBox="0 0 496 496" version="1.1">
<g id="surface1">
<path style=" stroke:none;fill-rule:nonzero;fill:rgb(0%,0%,0%);fill-opacity:1;" d="M 66.234375 496.5 C 62.410156 491.964844 62.433594 489.96875 65.929688 485.476562 C 84.335938 461.808594 102.722656 438.125 121.121094 414.449219 C 124.03125 410.699219 126.808594 406.832031 129.945312 403.28125 C 132.285156 400.628906 133.082031 397.9375 132.535156 394.441406 C 131.636719 388.710938 131.054688 382.925781 130.503906 377.144531 C 129.5625 367.300781 128.695312 357.453125 127.902344 347.59375 C 127.046875 336.988281 126.847656 326.347656 126.210938 315.730469 C 125.597656 305.523438 125.398438 295.308594 125.105469 285.097656 C 124.761719 273.070312 124.863281 261.023438 124.917969 248.984375 C 124.964844 238.128906 125.078125 227.265625 125.410156 216.414062 C 125.683594 207.371094 126.542969 198.339844 126.742188 189.296875 C 127.019531 176.703125 128.996094 164.273438 129.902344 151.746094 C 130.097656 149.023438 130.28125 146.242188 132.140625 143.960938 C 134.636719 140.894531 138.796875 139.78125 142.226562 141.289062 C 146.007812 142.953125 148.066406 146.890625 147.558594 151.097656 C 146.171875 162.65625 144.765625 174.226562 144.179688 185.855469 C 143.382812 201.640625 142.5625 217.417969 142.4375 233.238281 C 142.335938 245.792969 142.0625 258.355469 142.1875 270.914062 C 142.296875 281.703125 142.367188 292.5 142.75 303.28125 C 143.132812 313.972656 143.953125 324.652344 144.464844 335.34375 C 145.28125 352.285156 147.105469 369.144531 148.789062 386.007812 C 150.289062 401.058594 152.921875 415.976562 156.023438 430.789062 C 156.925781 435.097656 158.339844 439.296875 159.34375 443.589844 C 160.519531 448.621094 163.34375 452.617188 167.246094 455.722656 C 177.964844 464.25 189.253906 471.976562 202.28125 476.554688 C 214.472656 480.839844 227.011719 481.941406 239.902344 479.960938 C 255.566406 477.554688 269.839844 471.777344 283.1875 463.441406 C 305.726562 449.363281 323.925781 430.847656 338.828125 408.964844 C 347.976562 395.535156 355.066406 381.078125 359.9375 365.589844 C 363.53125 354.164062 366.105469 342.503906 367.4375 330.554688 C 369.113281 315.550781 369.773438 300.511719 369.308594 285.449219 C 368.925781 272.925781 368.101562 260.414062 367.042969 247.921875 C 366.308594 239.234375 366.027344 230.511719 365.386719 221.8125 C 364.648438 211.785156 363.910156 201.753906 363.636719 191.703125 C 363.355469 181.402344 363.476562 171.097656 364.078125 160.792969 C 364.433594 154.726562 365.359375 148.730469 365.8125 142.679688 C 366.128906 138.460938 370.582031 134.789062 374.90625 135.039062 C 379.507812 135.304688 383.289062 139.765625 382.988281 144.523438 C 382.585938 150.917969 381.570312 157.25 381.351562 163.671875 C 381.148438 169.71875 380.960938 175.761719 380.925781 181.816406 C 380.882812 189.964844 381.148438 198.09375 381.632812 206.210938 C 382.445312 219.8125 383.539062 233.394531 384.402344 246.992188 C 385.101562 258.011719 385.613281 269.046875 386.253906 280.070312 C 386.796875 289.308594 386.796875 298.558594 386.445312 307.789062 C 385.871094 322.761719 384.664062 337.703125 381.386719 352.371094 C 377.835938 368.253906 372.554688 383.550781 365.183594 398.089844 C 364.167969 400.09375 363.238281 402.171875 361.949219 403.988281 C 360.390625 406.183594 360.90625 407.738281 362.488281 409.679688 C 371.269531 420.464844 379.921875 431.355469 388.625 442.207031 C 399.726562 456.042969 410.824219 469.886719 421.945312 483.707031 C 423.976562 486.234375 425.03125 488.933594 423.445312 491.996094 C 422.097656 494.597656 419.75 495.789062 416.839844 495.664062 C 414.546875 495.5625 412.765625 494.417969 411.339844 492.628906 C 402.195312 481.171875 393.03125 469.726562 383.875 458.277344 C 374.039062 445.984375 364.203125 433.6875 354.359375 421.398438 C 353.898438 420.828125 353.355469 420.320312 352.773438 419.707031 C 351.050781 420.882812 350.152344 422.59375 349.054688 424.109375 C 332.484375 447.011719 312.363281 466.105469 287.929688 480.40625 C 274.554688 488.230469 260.242188 493.832031 244.667969 496.410156 C 233.324219 496.5 222.144531 496.5 210.582031 496.394531 C 205.128906 494.988281 199.992188 493.953125 195.085938 492.066406 C 180.707031 486.542969 168.007812 478.148438 156.085938 468.601562 C 149.820312 463.585938 145.261719 457.097656 143.042969 449.199219 C 141.0625 442.152344 139.21875 435.082031 137.789062 427.894531 C 137.175781 424.808594 137.207031 421.527344 135.464844 418.050781 C 135.089844 418.730469 134.960938 419.050781 134.757812 419.316406 C 119.914062 438.457031 105.058594 457.589844 90.222656 476.738281 C 85.128906 483.308594 80.074219 489.910156 75 496.5 C 72.15625 496.5 69.3125 496.5 66.234375 496.5 Z M 66.234375 496.5 "/>
<path style=" stroke:none;fill-rule:nonzero;fill:rgb(0%,0%,0%);fill-opacity:1;" d="M 291.140625 396.617188 C 280.320312 410.132812 266.257812 417.699219 249.390625 419.433594 C 220.550781 422.398438 191.816406 405.355469 184.757812 375.625 C 179.597656 353.878906 186.410156 335.273438 203.34375 320.730469 C 216.085938 309.78125 231.285156 305.167969 247.882812 306.578125 C 274.625 308.851562 296.921875 326.652344 301.960938 353.722656 C 304.882812 369.4375 300.867188 383.738281 291.140625 396.617188 M 214.125 396.625 C 226.320312 405.835938 240.042969 408 254.617188 404.71875 C 274.128906 400.328125 287.808594 383.8125 288.53125 364.695312 C 289.03125 351.507812 284.285156 340.582031 274.601562 331.8125 C 258.003906 316.785156 231.722656 315.9375 214.417969 329.296875 C 201.082031 339.589844 195.402344 353.238281 197.84375 369.898438 C 199.445312 380.835938 205.136719 389.605469 214.125 396.625 Z M 214.125 396.625 "/>
<path style=" stroke:none;fill-rule:nonzero;fill:rgb(0%,0%,0%);fill-opacity:1;" d="M 331.144531 128.882812 C 315.886719 128.746094 300.8125 128.808594 285.746094 128.425781 C 269.757812 128.019531 253.765625 128.464844 237.785156 127.941406 C 222.378906 127.4375 206.972656 127.871094 191.570312 127.496094 C 190.242188 127.464844 188.894531 127.433594 187.59375 127.199219 C 182.304688 126.246094 180.15625 120.875 183.285156 116.507812 C 184.71875 114.503906 186.796875 113.199219 188.6875 111.722656 C 204.164062 99.617188 219.578125 87.425781 234.609375 74.773438 C 239.492188 70.660156 244.515625 66.65625 248.570312 61.609375 C 251.304688 58.207031 255.121094 58.042969 259.03125 60.867188 C 265.238281 65.355469 271.386719 69.929688 277.570312 74.449219 C 295.921875 87.863281 314.28125 101.265625 332.640625 114.671875 C 333.3125 115.164062 333.988281 115.648438 334.644531 116.164062 C 337.082031 118.082031 338.769531 120.414062 337.902344 123.683594 C 337.03125 126.960938 334.652344 128.578125 331.144531 128.882812 M 260.914062 114.785156 C 277.085938 114.785156 293.261719 114.785156 309.421875 114.785156 C 309.316406 114.660156 309.1875 114.445312 309 114.308594 C 291.589844 101.582031 274.164062 88.875 256.777344 76.117188 C 255.378906 75.089844 254.527344 75.417969 253.375 76.46875 C 242.125 86.761719 230.160156 96.195312 218.292969 105.75 C 215.089844 108.332031 211.640625 110.625 208.78125 113.980469 C 214.707031 114.320312 220.585938 114.269531 226.464844 114.332031 C 237.792969 114.445312 249.117188 114.621094 260.914062 114.785156 Z M 260.914062 114.785156 "/>
</g>
</svg>
