<?xml version="1.0" encoding="UTF-8"?>
<svg xmlns="http://www.w3.org/2000/svg" xmlns:xlink="http://www.w3.org/1999/xlink" width="50px" height="50px" viewBox="0 0 496 496" version="1.1">
<g id="surface1">
<path style=" stroke:none;fill-rule:nonzero;fill:rgb(0%,0%,0%);fill-opacity:1;" d="M 87.734375 496.5 C 86.175781 493.449219 86.839844 490.5625 87.949219 487.582031 C 96.789062 463.785156 105.554688 439.960938 114.34375 416.144531 C 123.796875 390.53125 133.28125 364.929688 142.699219 339.304688 C 152.777344 311.882812 162.792969 284.4375 172.835938 257 C 179.019531 240.117188 185.183594 223.226562 191.386719 206.351562 C 198.855469 186.039062 206.359375 165.742188 213.847656 145.4375 C 217.59375 135.285156 221.34375 125.132812 225.082031 114.976562 C 225.21875 114.605469 225.230469 114.191406 225.347656 113.53125 C 222.808594 112.890625 220.324219 112.359375 217.890625 111.636719 C 205.253906 107.890625 194.710938 101.089844 187.410156 89.933594 C 175.117188 71.144531 180.222656 48.554688 197.957031 34.855469 C 220.230469 17.652344 251.386719 17.296875 274.183594 33.792969 C 284.25 41.078125 290.867188 50.832031 292.476562 63.324219 C 294.0625 75.609375 290.074219 86.363281 281.867188 95.492188 C 272.386719 106.042969 260.234375 111.5625 246.386719 113.683594 C 246.070312 113.734375 245.761719 113.847656 245.03125 114.042969 C 246.097656 116.65625 247.070312 119.179688 248.152344 121.652344 C 256.285156 140.269531 264.445312 158.871094 272.59375 177.480469 C 280.710938 196.011719 288.835938 214.539062 296.9375 233.078125 C 304.804688 251.078125 312.625 269.097656 320.503906 287.09375 C 328.644531 305.703125 336.84375 324.289062 344.996094 342.894531 C 355.320312 366.460938 365.625 390.03125 375.941406 413.601562 C 386.089844 436.785156 396.25 459.964844 406.398438 483.148438 C 407.332031 485.285156 408.121094 487.492188 409.175781 489.5625 C 410.332031 491.828125 410.550781 493.976562 409.0625 496.335938 C 404.988281 496.5 400.980469 496.5 396.644531 496.359375 C 379.96875 480.3125 363.617188 464.398438 347.253906 448.496094 C 324.027344 425.917969 300.792969 403.34375 277.558594 380.769531 C 266.808594 370.320312 256.03125 359.90625 245.347656 349.390625 C 243.582031 347.648438 242.539062 347.570312 240.777344 349.453125 C 233.5625 357.183594 226.171875 364.75 218.855469 372.386719 C 207.101562 384.648438 195.363281 396.925781 183.601562 409.179688 C 167.519531 425.941406 151.425781 442.695312 135.328125 459.441406 C 124.597656 470.609375 113.839844 481.753906 103.132812 492.941406 C 102.121094 494 100.820312 494.90625 100.5 496.5 C 96.324219 496.5 92.144531 496.5 87.734375 496.5 M 267.773438 200.945312 C 257.089844 176.613281 246.40625 152.285156 235.523438 127.496094 C 234.457031 130.101562 233.546875 132.140625 232.78125 134.234375 C 223.476562 159.621094 214.199219 185.015625 204.90625 210.402344 C 197.929688 229.46875 190.964844 248.535156 183.914062 267.570312 C 183.183594 269.53125 183.605469 270.710938 185.050781 272.101562 C 200.746094 287.253906 216.375 302.476562 232.03125 317.667969 C 235.53125 321.0625 239.0625 324.421875 242.789062 328 C 243.535156 327.144531 244.054688 326.5 244.625 325.902344 C 250.148438 320.121094 255.671875 314.34375 261.203125 308.574219 C 273.019531 296.253906 284.828125 283.929688 296.671875 271.640625 C 297.613281 270.667969 297.863281 269.875 297.269531 268.578125 C 295.617188 264.945312 294.15625 261.222656 292.554688 257.5625 C 284.339844 238.808594 276.109375 220.058594 267.773438 200.945312 M 265.28125 324.019531 C 261.640625 327.796875 258.070312 331.640625 254.332031 335.324219 C 252.742188 336.890625 252.652344 337.839844 254.371094 339.472656 C 263.183594 347.851562 271.867188 356.363281 280.582031 364.84375 C 306.066406 389.644531 331.542969 414.460938 357.03125 439.261719 C 365.472656 447.476562 373.945312 455.664062 382.40625 463.863281 C 382.492188 463.804688 382.578125 463.746094 382.664062 463.683594 C 356.460938 403.792969 330.253906 343.898438 304.070312 284.046875 C 302.984375 284.242188 302.601562 284.945312 302.101562 285.464844 C 296.453125 291.359375 290.824219 297.265625 285.1875 303.167969 C 278.632812 310.03125 272.070312 316.890625 265.28125 324.019531 M 175.066406 398.320312 C 193.707031 378.9375 212.347656 359.550781 230.992188 340.167969 C 233.289062 337.78125 233.324219 337.753906 231.011719 335.496094 C 218.785156 323.582031 206.546875 311.679688 194.308594 299.777344 C 189.25 294.859375 184.1875 289.945312 178.804688 284.714844 C 156.554688 344.421875 134.441406 403.765625 112.328125 463.105469 C 113.285156 462.753906 113.808594 462.222656 114.328125 461.683594 C 123.425781 452.1875 132.523438 442.6875 141.628906 433.191406 C 152.695312 421.65625 163.765625 410.125 175.066406 398.320312 M 195.671875 74.597656 C 197.160156 80.707031 200.457031 85.769531 205.046875 89.921875 C 221.433594 104.753906 249.121094 105.53125 266.429688 91.746094 C 283.195312 78.390625 282.527344 55.921875 265 43.546875 C 255.261719 36.671875 244.378906 34.203125 232.609375 35.085938 C 220.859375 35.96875 210.546875 40.09375 202.546875 48.949219 C 196.0625 56.125 193.675781 64.601562 195.671875 74.597656 Z M 195.671875 74.597656 "/>
<path style=" stroke:none;fill-rule:nonzero;fill:rgb(0%,0%,0%);fill-opacity:1;" d="M 311.445312 200.359375 C 310.816406 195.554688 310.957031 191.046875 312.46875 186.597656 C 315.5 177.691406 323.863281 171.554688 333.28125 171.359375 C 343.699219 171.144531 352.570312 175.089844 360.601562 181.363281 C 361.324219 181.929688 362.027344 182.515625 362.730469 183.101562 C 365.8125 185.65625 366.492188 188.535156 364.695312 191.40625 C 362.839844 194.371094 358.929688 195.5625 355.691406 194.144531 C 353.984375 193.398438 352.691406 192.066406 351.234375 190.964844 C 346.859375 187.667969 342.21875 184.886719 336.582031 184.558594 C 328.3125 184.078125 323.984375 189.195312 325.320312 197.457031 C 326.992188 207.796875 331.949219 216.570312 338.140625 224.734375 C 346.722656 236.054688 357.316406 245.273438 368.757812 253.585938 C 372.597656 256.371094 376.53125 259.058594 380.136719 262.128906 C 383.121094 264.667969 384.726562 268.042969 383.628906 272.160156 C 382.746094 275.457031 379.988281 277.582031 376.679688 277.578125 C 373.363281 277.578125 370.441406 275.257812 369.78125 271.839844 C 369.542969 270.597656 368.84375 269.980469 367.953125 269.347656 C 357.289062 261.765625 346.800781 253.980469 337.582031 244.609375 C 327.617188 234.484375 319.132812 223.375 314.128906 209.914062 C 313 206.875 312.109375 203.757812 311.445312 200.359375 Z M 311.445312 200.359375 "/>
<path style=" stroke:none;fill-rule:nonzero;fill:rgb(0%,0%,0%);fill-opacity:1;" d="M 141.160156 207.683594 C 143.621094 202.425781 145.453125 197.191406 145.398438 191.476562 C 145.371094 188.425781 144.476562 187.359375 141.523438 186.539062 C 137.097656 185.304688 133.117188 186.554688 129.339844 188.742188 C 124.707031 191.421875 120.566406 194.777344 116.53125 198.277344 C 112.796875 201.515625 108.816406 201.65625 105.765625 198.746094 C 103.21875 196.316406 102.753906 192.867188 105.230469 190.535156 C 113.03125 183.191406 121.25 176.402344 131.992188 173.710938 C 138.042969 172.195312 143.925781 172.957031 149.542969 175.492188 C 157.289062 178.988281 160.882812 186.675781 159.503906 195.863281 C 158.324219 203.71875 155.433594 210.949219 151.792969 217.902344 C 143.269531 234.1875 132.757812 249.1875 121.882812 263.953125 C 120.789062 265.433594 119.878906 266.988281 119.183594 268.710938 C 117.644531 272.519531 113.496094 274.214844 109.683594 272.71875 C 106.070312 271.304688 104.679688 267.945312 106.046875 263.882812 C 107.019531 260.996094 108.800781 258.585938 110.578125 256.160156 C 120.574219 242.511719 130.253906 228.65625 138.25 213.703125 C 139.269531 211.792969 140.136719 209.804688 141.160156 207.683594 Z M 141.160156 207.683594 "/>
</g>
</svg>
