<?xml version="1.0" encoding="UTF-8"?>
<svg xmlns="http://www.w3.org/2000/svg" xmlns:xlink="http://www.w3.org/1999/xlink" width="50px" height="50px" viewBox="0 0 496 496" version="1.1">
<g id="surface1">
<path style=" stroke:none;fill-rule:nonzero;fill:rgb(0%,0%,0%);fill-opacity:1;" d="M 240.734375 496.5 C 237.320312 494.855469 233.726562 494.351562 230.539062 492.628906 C 219.375 486.589844 212.011719 477.511719 207.777344 465.605469 C 201.292969 447.359375 208.460938 426.089844 221.605469 414.917969 C 241.929688 397.640625 270.164062 401.449219 285.503906 421.574219 C 295.1875 434.28125 298.234375 448.566406 293.484375 464.234375 C 289.574219 477.128906 281.699219 486.574219 269.882812 492.914062 C 266.976562 494.472656 263.75 494.996094 260.636719 496.386719 C 253.988281 496.5 247.480469 496.5 240.734375 496.5 M 272.183594 426.570312 C 271.367188 425.859375 270.558594 425.144531 269.734375 424.441406 C 259.148438 415.449219 242.925781 415.421875 231.847656 423.851562 C 217.046875 435.113281 214.621094 458.320312 226.589844 472.414062 C 239.039062 487.070312 259.230469 488.128906 272.722656 474.21875 C 285.605469 460.9375 285.1875 440.472656 272.183594 426.570312 Z M 272.183594 426.570312 "/>
<path style=" stroke:none;fill-rule:nonzero;fill:rgb(0%,0%,0%);fill-opacity:1;" d="M 131.953125 447.984375 C 105.910156 463.046875 80.015625 478 54.132812 492.972656 C 51.660156 494.402344 49.183594 494.960938 46.585938 493.417969 C 43.914062 491.835938 43.238281 489.394531 43.257812 486.398438 C 43.398438 464.902344 43.191406 443.398438 43.558594 421.90625 C 44.011719 395.746094 43.472656 369.578125 44.035156 343.425781 C 44.558594 319.015625 44.152344 294.601562 44.503906 270.191406 C 44.5625 266.195312 44.738281 262.199219 44.8125 258.203125 C 44.921875 252.308594 50.011719 249.210938 55.222656 252.011719 C 58.742188 253.902344 62.144531 256.011719 65.59375 258.039062 C 97.46875 276.796875 129.34375 295.546875 161.210938 314.320312 C 186.113281 328.988281 211 343.6875 235.894531 358.367188 C 239.410156 360.441406 242.964844 362.449219 246.449219 364.574219 C 247.601562 365.277344 248.480469 365.234375 249.644531 364.5625 C 281.75 346.035156 313.882812 327.5625 345.992188 309.042969 C 375.285156 292.144531 404.546875 275.195312 433.828125 258.28125 C 439.984375 254.726562 445.367188 258.023438 445.722656 265.222656 C 446.324219 277.300781 445.773438 289.386719 446.230469 301.453125 C 446.710938 314.199219 446.414062 326.945312 446.703125 339.6875 C 447.238281 363.507812 447.402344 387.332031 447.765625 411.152344 C 447.960938 423.8125 447.792969 436.484375 448.257812 449.132812 C 448.699219 461.132812 448.53125 473.125 448.683594 485.117188 C 448.691406 485.785156 448.695312 486.453125 448.667969 487.117188 C 448.410156 492.828125 443.195312 495.890625 438.234375 493.039062 C 428.917969 487.6875 419.707031 482.152344 410.445312 476.707031 C 379.066406 458.257812 347.679688 439.824219 316.308594 421.363281 C 294.128906 408.308594 271.960938 395.230469 249.8125 382.113281 C 248.492188 381.332031 247.488281 381.289062 246.15625 382.058594 C 222.738281 395.636719 199.300781 409.179688 175.855469 422.710938 C 161.28125 431.121094 146.6875 439.492188 131.953125 447.984375 M 352.949219 427.269531 C 380.203125 443.324219 407.457031 459.378906 435.417969 475.851562 C 434.414062 408.558594 433.421875 341.914062 432.417969 274.621094 C 375.226562 307.628906 318.546875 340.339844 261.449219 373.292969 C 263.527344 374.558594 264.996094 375.484375 266.496094 376.367188 C 275.324219 381.566406 284.160156 386.75 292.988281 391.945312 C 312.875 403.652344 332.757812 415.363281 352.949219 427.269531 M 58.027344 293.75 C 57.582031 354.230469 57.136719 414.710938 56.683594 475.917969 C 116.347656 441.480469 175.25 407.484375 234.632812 373.214844 C 175.546875 338.414062 117.132812 304.007812 58.027344 269.195312 C 58.027344 277.804688 58.027344 285.527344 58.027344 293.75 Z M 58.027344 293.75 "/>
<path style=" stroke:none;fill-rule:nonzero;fill:rgb(0%,0%,0%);fill-opacity:1;" d="M 243.441406 337.300781 C 239.9375 335.871094 238.40625 333.335938 238.402344 329.816406 C 238.386719 320.488281 238.476562 311.15625 238.351562 301.828125 C 237.976562 273.179688 237.863281 244.53125 237.808594 215.878906 C 237.804688 213.40625 238.277344 211.207031 240.273438 209.636719 C 242.007812 208.273438 243.917969 207.171875 246.242188 208.214844 C 248.902344 209.410156 250.828125 211.234375 251.113281 214.332031 C 251.152344 214.746094 251.128906 215.164062 251.136719 215.582031 C 251.609375 241.3125 251.550781 267.050781 251.65625 292.785156 C 251.707031 305.109375 251.972656 317.433594 252.066406 329.757812 C 252.105469 335.019531 248.539062 338.152344 243.441406 337.300781 Z M 243.441406 337.300781 "/>
<path style=" stroke:none;fill-rule:nonzero;fill:rgb(0%,0%,0%);fill-opacity:1;" d="M 125.09375 357.429688 C 132.164062 366.863281 132.679688 378.347656 126.53125 387.082031 C 118.050781 399.140625 102.128906 399.351562 93.332031 387.523438 C 85.054688 376.398438 88.304688 359.625 100.050781 352.839844 C 108.265625 348.09375 117.703125 349.78125 125.09375 357.429688 Z M 125.09375 357.429688 "/>
</g>
</svg>
