<?xml version="1.0" encoding="UTF-8"?>
<svg xmlns="http://www.w3.org/2000/svg" xmlns:xlink="http://www.w3.org/1999/xlink" width="50px" height="50px" viewBox="0 0 496 496" version="1.1">
<g id="surface1">
<path style=" stroke:none;fill-rule:nonzero;fill:rgb(0%,0%,0%);fill-opacity:1;" d="M 46.734375 496.5 C 42.800781 492.644531 42.96875 489.785156 47.285156 485.960938 C 61.9375 472.980469 76.617188 460.03125 91.285156 447.070312 C 97.777344 441.335938 104.25 435.578125 110.78125 429.886719 C 112.136719 428.710938 112.46875 427.816406 111.339844 426.15625 C 98.367188 407.070312 90.023438 386.085938 86.136719 363.367188 C 84.621094 354.503906 84.238281 345.546875 84.1875 336.527344 C 84.046875 310.101562 90.796875 285.5 103.0625 262.292969 C 109.320312 250.457031 117.167969 239.703125 126.105469 229.742188 C 126.597656 229.195312 127.03125 228.597656 127.519531 227.992188 C 116.78125 216.21875 106.121094 204.535156 95.46875 192.847656 C 76.160156 171.671875 56.855469 150.496094 37.554688 129.308594 C 35.839844 127.429688 34.058594 125.402344 35.441406 122.664062 C 36.960938 119.65625 38.960938 116.945312 42.632812 116.335938 C 44.105469 116.09375 45.621094 116.066406 47.117188 116.046875 C 69.027344 115.792969 90.9375 115.582031 112.847656 115.3125 C 137.917969 115 162.992188 114.792969 188.058594 114.257812 C 212.628906 113.730469 237.203125 113.589844 261.773438 113.257812 C 280.929688 112.996094 300.082031 112.585938 319.238281 112.238281 C 326.734375 112.101562 334.226562 112.058594 341.722656 111.957031 C 358.714844 111.726562 375.710938 111.664062 392.699219 111.269531 C 410.355469 110.859375 428.007812 110.589844 445.667969 110.429688 C 446.082031 110.425781 446.5 110.414062 446.914062 110.429688 C 449.671875 110.523438 451.636719 111.828125 452.859375 114.296875 C 454.0625 116.71875 453.414062 118.855469 451.773438 120.757812 C 449.484375 123.402344 447.140625 126 444.769531 128.570312 C 421.394531 153.921875 398.007812 179.265625 374.621094 204.605469 C 371.472656 208.019531 368.316406 211.421875 365.277344 214.703125 C 365.558594 215.808594 366.222656 216.207031 366.773438 216.695312 C 395.902344 242.621094 414 274.628906 420.175781 313.261719 C 421.75 323.085938 422.378906 332.984375 421.964844 342.859375 C 420.695312 373.179688 411.617188 401.050781 394.558594 426.214844 C 393.246094 428.148438 393.34375 429.195312 395.003906 430.769531 C 413.453125 448.242188 431.832031 465.789062 450.230469 483.316406 C 450.832031 483.890625 451.429688 484.46875 452.027344 485.050781 C 456.480469 489.40625 456.054688 493.105469 450.621094 496.386719 C 449.644531 496.5 448.785156 496.5 447.578125 496.402344 C 445.804688 495.746094 444.632812 494.84375 443.535156 493.796875 C 427.507812 478.5 411.46875 463.214844 395.429688 447.929688 C 392.191406 444.84375 388.933594 441.777344 385.472656 438.5 C 383.398438 440.890625 381.574219 443.136719 379.605469 445.246094 C 357.90625 468.476562 331.867188 484.699219 301.304688 493.582031 C 297.722656 494.621094 294.101562 495.53125 290.5 496.5 C 265.488281 496.5 240.480469 496.5 215.082031 496.398438 C 212.859375 495.789062 211.03125 495.242188 209.183594 494.773438 C 177.199219 486.621094 150.023438 470.347656 127.402344 446.378906 C 124.90625 443.734375 122.5 441.003906 119.941406 438.191406 C 119.144531 438.863281 118.511719 439.375 117.898438 439.914062 C 103.996094 452.199219 90.09375 464.480469 76.199219 476.777344 C 68.789062 483.335938 61.398438 489.925781 54 496.5 C 51.65625 496.5 49.3125 496.5 46.734375 496.5 M 365.765625 196.023438 C 388.171875 171.746094 410.578125 147.46875 433.273438 122.875 C 411.445312 123.238281 390.136719 123.707031 368.828125 123.914062 C 344.332031 124.152344 319.84375 124.382812 295.355469 124.976562 C 281.859375 125.304688 268.359375 125.179688 254.863281 125.414062 C 233.371094 125.789062 211.878906 126 190.386719 126.417969 C 165.480469 126.898438 140.570312 127.128906 115.660156 127.453125 C 96 127.703125 76.335938 127.925781 56.675781 128.183594 C 55.730469 128.195312 54.695312 127.96875 53.640625 128.917969 C 81.160156 159.070312 108.636719 189.179688 136.25 219.4375 C 167.050781 191.898438 202.773438 176.75 243.683594 174.574219 C 284.621094 172.394531 321.898438 183.453125 355.375 207.363281 C 358.898438 203.519531 362.210938 199.902344 365.765625 196.023438 M 115.734375 412.03125 C 121.523438 421.714844 128.128906 430.789062 135.847656 439.039062 C 152.40625 456.738281 172.011719 470 194.609375 478.652344 C 216.101562 486.882812 238.390625 490.335938 261.460938 489.074219 C 278.496094 488.140625 294.976562 484.851562 310.855469 478.742188 C 335.234375 469.363281 356.246094 455.011719 373.410156 435.242188 C 395.40625 409.898438 407.808594 380.492188 410.167969 346.96875 C 411.859375 322.921875 407.773438 299.769531 398.101562 277.761719 C 385.21875 248.445312 364.722656 225.539062 337.472656 208.855469 C 305.8125 189.472656 271.269531 182.378906 234.488281 186.25 C 218.761719 187.902344 203.523438 191.921875 189.039062 198.339844 C 152.460938 214.546875 125.234375 240.410156 108.570312 277.011719 C 97.0625 302.292969 93.441406 328.820312 96.761719 356.261719 C 99.152344 376 105.601562 394.480469 115.734375 412.03125 Z M 115.734375 412.03125 "/>
<path style=" stroke:none;fill-rule:nonzero;fill:rgb(0%,0%,0%);fill-opacity:1;" d="M 224.957031 107.042969 C 209.058594 107.429688 193.398438 107.683594 177.753906 108.253906 C 171.59375 108.476562 165.433594 108.5625 159.273438 108.757812 C 155.734375 108.875 153.328125 107.417969 152.230469 104.386719 C 151.277344 101.753906 152.152344 98.988281 155.007812 97.03125 C 162.21875 92.085938 169.5 87.238281 176.808594 82.4375 C 194.425781 70.867188 211.917969 59.113281 229.753906 47.878906 C 233.898438 45.269531 237.558594 44.886719 241.996094 47.566406 C 266.589844 62.425781 291.324219 77.0625 316.007812 91.773438 C 319.242188 93.703125 320.625 96.207031 320.078125 99.085938 C 319.519531 102.03125 317.417969 103.722656 313.585938 104.261719 C 312.433594 104.421875 311.269531 104.554688 310.109375 104.582031 C 295.125 104.964844 280.136719 105.273438 265.148438 105.699219 C 251.832031 106.082031 238.515625 106.585938 224.957031 107.042969 M 239.074219 60.707031 C 237.023438 59.011719 235.238281 59.457031 233.050781 60.835938 C 217.746094 70.453125 202.828125 80.660156 187.6875 90.515625 C 185.5 91.941406 183.339844 93.410156 181.167969 94.855469 C 181.234375 95.050781 181.296875 95.246094 181.359375 95.4375 C 217.917969 94.382812 254.472656 93.328125 291.03125 92.269531 C 291.085938 92.125 291.140625 91.980469 291.195312 91.835938 C 273.921875 81.527344 256.648438 71.21875 239.074219 60.707031 Z M 239.074219 60.707031 "/>
<path style=" stroke:none;fill-rule:nonzero;fill:rgb(0%,0%,0%);fill-opacity:1;" d="M 442.710938 447.972656 C 426.585938 444.929688 415.390625 430.457031 416.289062 414.21875 C 416.941406 402.402344 421.867188 392.960938 432.128906 386.96875 C 446.71875 378.453125 464.332031 383.179688 473.253906 397.578125 C 482.394531 412.335938 478.984375 431.589844 465.246094 442.164062 C 458.667969 447.226562 451.144531 449.039062 442.710938 447.972656 M 430.253906 422.957031 C 430.929688 424.289062 431.515625 425.683594 432.300781 426.953125 C 438.234375 436.554688 450.636719 438.308594 459.023438 430.761719 C 465.078125 425.316406 467.316406 415.511719 464.066406 407.507812 C 458.917969 394.828125 444.492188 391.851562 435.648438 400.117188 C 429 406.328125 427.753906 414.050781 430.253906 422.957031 Z M 430.253906 422.957031 "/>
<path style=" stroke:none;fill-rule:nonzero;fill:rgb(0%,0%,0%);fill-opacity:1;" d="M 117.320312 350.160156 C 116.507812 341.945312 116.6875 333.964844 117.496094 326 C 119.078125 310.445312 123.234375 295.609375 130.207031 281.59375 C 141.507812 258.878906 157.972656 240.863281 179.511719 227.460938 C 196.617188 216.824219 215.253906 210.414062 235.175781 208.015625 C 255.90625 205.519531 276.167969 207.984375 295.90625 214.902344 C 318.09375 222.679688 336.992188 235.359375 352.460938 252.988281 C 370.074219 273.066406 380.574219 296.503906 383.953125 322.992188 C 386.640625 344.023438 383.917969 364.46875 376.429688 384.316406 C 370.472656 400.109375 361.730469 414.171875 350.304688 426.539062 C 332.507812 445.804688 310.867188 458.722656 285.527344 465.589844 C 272.375 469.152344 258.976562 470.636719 245.480469 469.992188 C 213.832031 468.480469 185.761719 457.582031 161.742188 436.664062 C 140.3125 417.996094 126.675781 394.628906 119.960938 367.160156 C 118.625 361.679688 117.742188 356.050781 117.320312 350.160156 M 162.402344 421.847656 C 167.28125 427.007812 172.703125 431.527344 178.433594 435.714844 C 196.9375 449.234375 217.789062 456.632812 240.429688 458.671875 C 252.355469 459.746094 264.339844 459.09375 276.183594 456.480469 C 301.132812 450.972656 322.527344 439.214844 340.300781 420.875 C 341.722656 419.402344 342.96875 417.765625 344.363281 416.125 C 343.628906 415.433594 343.109375 414.90625 342.550781 414.429688 C 326.878906 400.96875 311.207031 387.511719 295.53125 374.0625 C 279.597656 360.398438 263.628906 346.773438 247.757812 333.039062 C 245.84375 331.382812 244.664062 331.394531 242.820312 333.097656 C 236.15625 339.261719 229.34375 345.261719 222.578125 351.3125 C 212.652344 360.195312 202.722656 369.078125 192.785156 377.949219 C 180 389.367188 167.207031 400.777344 154.320312 412.28125 C 156.324219 415.929688 159.472656 418.570312 162.402344 421.847656 M 359.730469 283.507812 C 353.523438 271.0625 344.878906 260.496094 334.917969 250.875 C 308.078125 274.871094 281.414062 298.710938 254.257812 322.988281 C 255.113281 323.519531 255.660156 323.769531 256.097656 324.144531 C 271.214844 337.101562 286.320312 350.074219 301.433594 363.035156 C 317.375 376.699219 333.308594 390.367188 349.273438 404.003906 C 352.222656 406.519531 352.265625 406.441406 354.34375 403.089844 C 363.496094 388.339844 369.757812 372.574219 372.121094 355.246094 C 373.445312 345.515625 373.816406 335.8125 372.707031 326.121094 C 371.011719 311.285156 367.128906 297.035156 359.730469 283.507812 M 138.003906 291.726562 C 130.085938 310.425781 127.09375 329.878906 128.976562 350.097656 C 130.566406 367.105469 135.726562 382.964844 144.144531 397.796875 C 144.996094 399.296875 145.78125 400.851562 147.226562 402.203125 C 176.785156 375.785156 206.25 349.457031 235.855469 323.003906 C 234.984375 322.222656 234.382812 321.664062 233.761719 321.128906 C 210.132812 300.820312 186.503906 280.511719 162.875 260.199219 C 159.960938 257.691406 159.980469 257.679688 157.484375 260.609375 C 149.546875 269.929688 143.027344 280.136719 138.003906 291.726562 M 282.136719 222.152344 C 267.734375 218.355469 253.097656 217.132812 238.3125 218.753906 C 212.886719 221.535156 190.226562 230.984375 170.652344 247.582031 C 170.105469 248.046875 169.34375 248.382812 169.34375 249.359375 C 170.128906 250.613281 171.402344 251.441406 172.527344 252.40625 C 181.121094 259.789062 189.726562 267.15625 198.320312 274.53125 C 213.234375 287.335938 228.167969 300.117188 243.03125 312.980469 C 244.679688 314.410156 245.753906 314.210938 247.242188 312.867188 C 255.097656 305.785156 263.027344 298.785156 270.917969 291.742188 C 286.382812 277.929688 301.84375 264.109375 317.296875 250.285156 C 319.933594 247.929688 322.519531 245.519531 325.25 243.023438 C 312.199219 233.078125 297.96875 226.421875 282.136719 222.152344 Z M 282.136719 222.152344 "/>
</g>
</svg>
