<?xml version="1.0" encoding="UTF-8"?>
<svg xmlns="http://www.w3.org/2000/svg" xmlns:xlink="http://www.w3.org/1999/xlink" width="50px" height="50px" viewBox="0 0 496 496" version="1.1">
<g id="surface1">
<path style=" stroke:none;fill-rule:nonzero;fill:rgb(0%,0%,0%);fill-opacity:1;" d="M 245.734375 496.5 C 231.40625 488.886719 218.648438 479.210938 205.335938 470.402344 C 173.996094 449.675781 142.828125 428.691406 111.597656 407.808594 C 100.796875 400.582031 89.972656 393.390625 79.226562 386.085938 C 74.378906 382.789062 73.699219 379.648438 76.296875 374.292969 C 88.40625 349.339844 100.515625 324.386719 112.628906 299.4375 C 126.597656 270.664062 140.574219 241.894531 154.546875 213.125 C 168.449219 184.503906 182.363281 155.886719 196.25 127.261719 C 209.554688 99.832031 222.839844 72.398438 236.117188 44.957031 C 237.597656 41.902344 239.617188 39.648438 243.316406 39.75 C 246.457031 39.835938 248.25 41.769531 249.566406 44.398438 C 256.59375 58.386719 263.648438 72.363281 270.695312 86.34375 C 282.128906 109.03125 293.578125 131.707031 304.996094 154.398438 C 320.648438 185.496094 336.273438 216.605469 351.921875 247.707031 C 366.597656 276.871094 381.277344 306.035156 395.96875 335.195312 C 401.667969 346.496094 407.421875 357.773438 413.117188 369.078125 C 414.199219 371.226562 415.1875 373.425781 416.105469 375.652344 C 417.410156 378.824219 416.253906 381.894531 412.910156 384.25 C 404.058594 390.492188 395.195312 396.710938 386.332031 402.933594 C 359.675781 421.648438 333.019531 440.363281 306.359375 459.070312 C 289.378906 470.984375 272.394531 482.886719 255.417969 494.800781 C 254.808594 495.230469 254.261719 495.75 253.59375 496.363281 C 250.988281 496.5 248.476562 496.5 245.734375 496.5 M 240.34375 420.246094 C 240.558594 413.746094 239.902344 407.261719 239.894531 400.769531 C 239.890625 398.699219 239.03125 397.902344 237.183594 397.722656 C 229.808594 397.003906 222.890625 394.757812 216.21875 391.585938 C 188.539062 378.433594 172.054688 346.902344 182.4375 316.378906 C 191.257812 290.445312 210.515625 276.59375 236.949219 271.980469 C 239.125 271.601562 239.867188 270.90625 239.867188 268.675781 C 239.816406 203.433594 239.824219 138.1875 239.824219 72.945312 C 239.824219 72.039062 239.824219 71.132812 239.824219 70.226562 C 238.941406 70.898438 238.578125 71.546875 238.253906 72.214844 C 225.363281 98.726562 212.46875 125.238281 199.589844 151.753906 C 180.160156 191.75 160.722656 231.746094 141.3125 271.753906 C 124.738281 305.917969 108.214844 340.113281 91.589844 374.253906 C 90.582031 376.324219 90.75 377.335938 92.730469 378.640625 C 106.019531 387.386719 119.222656 396.261719 132.449219 405.105469 C 168.25 429.039062 204.050781 452.980469 239.851562 476.917969 C 240.375 477.265625 240.847656 477.886719 241.859375 477.242188 C 241.359375 458.503906 240.855469 439.625 240.34375 420.246094 M 255.03125 450.851562 C 255.3125 459.550781 254.859375 468.28125 255.882812 476.980469 C 257.140625 477.015625 257.835938 476.203125 258.617188 475.652344 C 272.070312 466.257812 285.511719 456.847656 298.941406 447.421875 C 331.945312 424.261719 364.9375 401.089844 397.9375 377.933594 C 401.1875 375.652344 401.191406 375.683594 399.367188 372.078125 C 388.617188 350.820312 377.855469 329.570312 367.136719 308.300781 C 352.667969 279.59375 338.230469 250.867188 323.777344 222.152344 C 300.933594 176.773438 278.082031 131.398438 255.230469 86.023438 C 254.847656 85.265625 254.386719 84.550781 253.597656 83.179688 C 253.597656 84.636719 253.597656 85.296875 253.597656 85.960938 C 253.613281 144.285156 253.625 202.613281 253.640625 260.9375 C 253.640625 263.855469 253.691406 266.773438 253.632812 269.6875 C 253.605469 271.144531 254.199219 271.710938 255.640625 271.917969 C 274.265625 274.59375 289.792969 282.851562 301.253906 297.960938 C 312.914062 313.335938 316.441406 330.636719 312.074219 349.382812 C 309.074219 362.273438 302.148438 372.972656 292.195312 381.601562 C 281.949219 390.480469 270.082031 396.023438 256.53125 397.652344 C 254.410156 397.910156 253.539062 398.644531 253.609375 400.945312 C 254.039062 415.175781 254.320312 429.414062 254.671875 443.648438 C 254.730469 445.890625 254.890625 448.132812 255.03125 450.851562 M 259.988281 286.753906 C 257.855469 286.386719 255.742188 285.871094 253.59375 285.675781 C 236.917969 284.171875 221.746094 287.890625 209.1875 299.429688 C 196.65625 310.941406 191.074219 325.429688 193.894531 342.222656 C 197.519531 363.796875 211.394531 376.949219 231.820312 382.589844 C 249.398438 387.445312 266.074219 384.144531 280.964844 373.003906 C 296.992188 361.011719 304.355469 338.972656 297.730469 320.15625 C 291.464844 302.359375 278.4375 291.683594 259.988281 286.753906 Z M 259.988281 286.753906 "/>
<path style=" stroke:none;fill-rule:nonzero;fill:rgb(0%,0%,0%);fill-opacity:1;" d="M 229.953125 334.519531 C 234.433594 328.09375 241 325.386719 247.519531 327.152344 C 254.339844 329.003906 259.789062 335.6875 260.652344 342.917969 C 261.414062 349.328125 259.433594 354.785156 255.078125 359.308594 C 247.519531 367.15625 235.351562 365.582031 229.785156 356.144531 C 225.566406 348.996094 225.542969 341.820312 229.953125 334.519531 Z M 229.953125 334.519531 "/>
</g>
</svg>
