<?xml version="1.0" encoding="UTF-8"?>
<svg xmlns="http://www.w3.org/2000/svg" xmlns:xlink="http://www.w3.org/1999/xlink" width="50px" height="50px" viewBox="0 0 496 496" version="1.1">
<g id="surface1">
<path style=" stroke:none;fill-rule:nonzero;fill:rgb(0%,0%,0%);fill-opacity:1;" d="M 82.734375 496.5 C 76.007812 490.820312 73.511719 483.027344 71.445312 475.101562 C 69.832031 468.910156 68.636719 462.605469 68.277344 456.1875 C 68.152344 453.96875 67.167969 453.101562 64.792969 453.132812 C 55.710938 453.246094 46.628906 453.152344 37.542969 453.09375 C 36.304688 453.085938 35.039062 452.972656 33.835938 452.691406 C 30.789062 451.972656 28.703125 449.039062 28.953125 446.007812 C 29.226562 442.667969 31.574219 439.980469 34.773438 439.855469 C 38.929688 439.695312 43.097656 439.867188 47.261719 439.878906 C 53.097656 439.898438 58.929688 439.839844 64.761719 439.9375 C 66.683594 439.96875 67.402344 439.367188 67.378906 437.371094 C 67.246094 425.503906 68.644531 413.804688 71.394531 402.265625 C 72.714844 396.722656 74.644531 391.425781 77.582031 386.519531 C 77.710938 386.304688 77.832031 386.085938 77.96875 385.878906 C 84.460938 375.847656 94.769531 376.171875 100.828125 386.535156 C 105.101562 393.851562 107.109375 401.894531 108.652344 410.105469 C 110.363281 419.210938 111.117188 428.40625 111.082031 437.660156 C 111.074219 439.871094 111.851562 440.40625 113.992188 440.46875 C 132.234375 440.992188 150.488281 440.625 168.726562 441.054688 C 185.140625 441.445312 201.558594 441.070312 217.960938 441.519531 C 235.957031 442.011719 253.957031 441.636719 271.949219 442.078125 C 279.609375 442.269531 287.265625 442.328125 295.132812 441.921875 C 294.175781 441.429688 293.234375 440.894531 292.253906 440.453125 C 263.496094 427.445312 234.730469 414.460938 205.980469 401.4375 C 197.789062 397.726562 189.628906 393.9375 181.480469 390.128906 C 177.71875 388.371094 176.144531 385.378906 177 381.957031 C 177.839844 378.585938 180.386719 376.859375 184.558594 376.859375 C 250.550781 376.851562 316.546875 376.855469 382.542969 376.832031 C 387.382812 376.828125 386.734375 377.695312 387.234375 372.363281 C 388.09375 363.226562 389.21875 354.167969 391.90625 345.371094 C 393.59375 339.855469 395.738281 334.535156 399.230469 329.855469 C 405.125 321.949219 414.441406 321.679688 420.570312 329.402344 C 425.441406 335.542969 427.792969 342.84375 429.613281 350.335938 C 431.542969 358.273438 432.792969 366.3125 433.121094 374.480469 C 433.183594 376.136719 433.628906 376.914062 435.449219 376.769531 C 437.765625 376.585938 440.101562 376.632812 442.429688 376.574219 C 446.96875 376.457031 449.992188 379.144531 450.046875 383.351562 C 450.097656 387.195312 447.183594 389.925781 442.859375 390.03125 C 440.695312 390.085938 438.519531 390.179688 436.363281 390.035156 C 434.15625 389.886719 433.542969 390.773438 433.46875 392.914062 C 433.058594 404.679688 431.59375 416.308594 428.097656 427.585938 C 426.246094 433.566406 423.957031 439.40625 419.464844 444.023438 C 413.1875 450.46875 405.578125 450.140625 399.859375 443.144531 C 397.636719 440.421875 395.921875 437.359375 394.5625 434.117188 C 390.132812 423.550781 388.300781 412.410156 387.359375 401.082031 C 387.117188 398.183594 386.632812 395.292969 386.847656 392.371094 C 386.984375 390.539062 386.09375 390.125 384.449219 390.140625 C 377.285156 390.214844 370.113281 390.066406 362.953125 390.246094 C 338.207031 390.867188 313.457031 390.398438 288.714844 390.738281 C 264.476562 391.070312 240.238281 391.128906 215.871094 391.546875 C 219.574219 393.234375 223.273438 394.921875 226.976562 396.601562 C 255.195312 409.390625 283.414062 422.179688 311.636719 434.957031 C 317.78125 437.742188 323.960938 440.4375 330.078125 443.28125 C 334.027344 445.121094 335.578125 448.699219 334.1875 452.25 C 333.03125 455.203125 330.859375 456.675781 327.351562 456.632812 C 318.1875 456.515625 309.027344 456.289062 299.863281 456.183594 C 277.617188 455.925781 255.367188 455.867188 233.125 455.414062 C 219.960938 455.144531 206.792969 455.457031 193.636719 454.945312 C 181.476562 454.476562 169.304688 454.976562 157.152344 454.492188 C 142.242188 453.894531 127.320312 454.527344 112.417969 453.800781 C 110.332031 453.699219 110.296875 455.023438 110.199219 456.324219 C 109.648438 463.90625 108.175781 471.332031 106.035156 478.597656 C 104.101562 485.179688 101.632812 491.558594 96.109375 496.378906 C 91.65625 496.5 87.3125 496.5 82.734375 496.5 M 409.871094 435.257812 C 413.121094 434.429688 413.910156 431.417969 414.953125 428.960938 C 419.933594 417.230469 421.25 404.769531 421.8125 392.1875 C 421.882812 390.683594 421.28125 390.109375 419.777344 390.121094 C 413.449219 390.171875 407.125 390.199219 400.796875 390.128906 C 398.972656 390.109375 398.554688 390.90625 398.574219 392.546875 C 398.609375 395.625 398.824219 398.683594 399.117188 401.75 C 399.949219 410.550781 401.269531 419.25 404.664062 427.488281 C 405.824219 430.308594 406.882812 433.257812 409.871094 435.257812 M 98.125 417.582031 C 96.984375 411.117188 95.933594 404.625 93.484375 398.480469 C 92.507812 396.039062 91.527344 393.558594 89.277344 391.761719 C 87.113281 393.234375 86.175781 395.386719 85.339844 397.523438 C 80.175781 410.679688 79.1875 424.488281 79.039062 438.429688 C 79.019531 440.125 79.960938 440.296875 81.261719 440.300781 C 86.421875 440.3125 91.585938 440.269531 96.742188 440.425781 C 98.886719 440.488281 99.402344 439.628906 99.421875 437.660156 C 99.492188 431.074219 98.890625 424.542969 98.125 417.582031 M 400.96875 357.15625 C 399.746094 362.859375 399.378906 368.675781 398.671875 374.449219 C 398.472656 376.074219 398.941406 376.898438 400.8125 376.871094 C 407.050781 376.789062 413.292969 376.800781 419.535156 376.863281 C 421.214844 376.878906 421.660156 376.277344 421.535156 374.636719 C 421.171875 369.828125 420.707031 365.039062 419.789062 360.308594 C 418.433594 353.285156 417.046875 346.25 413.261719 340.007812 C 410.953125 336.199219 409.335938 336.183594 407.035156 339.902344 C 403.832031 345.082031 402.453125 350.914062 400.96875 357.15625 M 84.769531 478.492188 C 85.574219 480.132812 86.277344 481.832031 87.207031 483.394531 C 88.773438 486.023438 89.761719 485.917969 91.363281 483.230469 C 94.351562 478.214844 95.6875 472.644531 96.808594 467.023438 C 97.660156 462.742188 98.566406 458.445312 98.527344 453.65625 C 92.636719 453.65625 86.847656 453.652344 81.058594 453.660156 C 79.964844 453.664062 79.617188 454.3125 79.769531 455.3125 C 80.914062 463.019531 81.761719 470.792969 84.769531 478.492188 Z M 84.769531 478.492188 "/>
<path style=" stroke:none;fill-rule:nonzero;fill:rgb(0%,0%,0%);fill-opacity:1;" d="M 458.605469 282.65625 C 459.769531 279.511719 460.824219 276.535156 461.953125 273.585938 C 463.429688 269.734375 466.804688 267.949219 470.207031 269.160156 C 473.8125 270.441406 475.359375 273.929688 473.894531 277.898438 C 465.960938 299.425781 457.992188 320.945312 450.003906 342.453125 C 448.625 346.160156 445.125 347.941406 441.890625 346.753906 C 438.246094 345.414062 436.675781 341.890625 438.097656 338.042969 C 444.894531 319.636719 451.71875 301.238281 458.605469 282.65625 Z M 458.605469 282.65625 "/>
<path style=" stroke:none;fill-rule:nonzero;fill:rgb(0%,0%,0%);fill-opacity:1;" d="M 45.660156 371.699219 C 48.8125 366.289062 52.074219 361.171875 56.179688 356.65625 C 58.367188 354.246094 60.703125 352.03125 63.898438 350.941406 C 66.984375 349.890625 70.109375 350.910156 71.667969 353.59375 C 73.390625 356.558594 72.9375 359.863281 70.113281 361.800781 C 61.984375 367.371094 57.695312 375.632812 53.96875 384.308594 C 52.609375 387.480469 49.429688 389.320312 46.394531 388.464844 C 42.988281 387.503906 41.070312 384.308594 41.769531 380.746094 C 42.402344 377.515625 43.929688 374.660156 45.660156 371.699219 Z M 45.660156 371.699219 "/>
<path style=" stroke:none;fill-rule:nonzero;fill:rgb(0%,0%,0%);fill-opacity:1;" d="M 426.558594 318.917969 C 424.585938 316.679688 424.457031 314.292969 425.269531 311.757812 C 426.941406 306.53125 428.582031 301.296875 430.308594 296.089844 C 431.636719 292.097656 434.902344 290.199219 438.320312 291.316406 C 442.144531 292.570312 443.675781 295.890625 442.339844 300.121094 C 440.6875 305.351562 439.082031 310.597656 437.328125 315.792969 C 435.585938 320.945312 431.101562 322.269531 426.558594 318.917969 Z M 426.558594 318.917969 "/>
</g>
</svg>
